<?xml version="1.0" encoding="utf-8"?>
<!-- Generator: Adobe Illustrator 16.0.0, SVG Export Plug-In . SVG Version: 6.00 Build 0)  -->
<!DOCTYPE svg PUBLIC "-//W3C//DTD SVG 1.1//EN" "http://www.w3.org/Graphics/SVG/1.1/DTD/svg11.dtd">
<svg version="1.1" id="Layer_1" xmlns="http://www.w3.org/2000/svg" xmlns:xlink="http://www.w3.org/1999/xlink" x="0px" y="0px"
	 width="49.25px" height="72px" viewBox="0 0 49.25 72" enable-background="new 0 0 49.25 72" xml:space="preserve">
<g>
	<g>
		<path fill="none" d="M-53.413,106.452c0-46.951,0-93.901,0-140.851c55.242,0,110.483,0,165.726,0c0,46.95,0,93.9,0,140.851
			C57.07,106.452,1.829,106.452-53.413,106.452z M6.099,22.056c0.033,0.038,0.066,0.076,0.1,0.114
			c-0.007,0.082,0.009,0.174-0.024,0.243c-0.387,0.792-0.742,1.603-1.184,2.363c-0.46,0.793-0.307,1.312,0.529,1.421
			c0.188,0.025,0.392-0.059,0.586-0.101c0.204-0.043,0.406-0.095,0.701-0.165c-0.086,0.232-0.122,0.375-0.189,0.501
			c-0.283,0.53-0.692,1.025-0.841,1.589c-0.292,1.107-0.524,2.244-0.624,3.383c-0.088,1.005-0.105,2.003-0.51,2.95
			c-0.15,0.352-0.247,0.728-0.359,1.095c-0.113,0.368-0.075,0.703,0.261,0.949C4.89,36.65,5.272,36.65,5.563,36.37
			c0.402-0.389,0.741-0.843,1.102-1.274c0.094-0.112,0.167-0.242,0.25-0.364c0.047,0.018,0.094,0.035,0.141,0.052
			c-0.022,0.19-0.03,0.383-0.067,0.569c-0.143,0.703-0.317,1.399-0.439,2.105c-0.329,1.901-0.742,3.765-1.925,5.366
			c-1.355,1.834-1.787,3.979-1.912,6.191c-0.06,1.055-0.105,2.058-0.926,2.865c-0.315,0.311-0.251,0.704,0.113,1.014
			c0.495,0.422,1.047,0.56,1.68,0.4c0.225-0.057,0.457-0.085,0.692-0.128c-0.16,1.001-0.307,1.905-0.447,2.81
			c-0.185,1.191-0.425,2.352-0.93,3.473c-0.617,1.369-1.115,2.798-1.301,4.307c-0.109,0.883,0.54,1.375,1.362,1.055
			c0.159-0.062,0.328-0.099,0.512-0.15c0.133,0.564-0.259,1.256,0.443,1.523c0.499,0.19,1.055,0.232,1.65,0.354
			c-0.08,0.224-0.167,0.487-0.268,0.746c-0.104,0.265-0.223,0.524-0.334,0.787c-0.159,0.377-0.017,0.696,0.295,0.868
			c0.881,0.488,2.274,0.594,3.085-0.26c0.116-0.123,0.23-0.264,0.375-0.332c0.134-0.064,0.321-0.084,0.46-0.041
			c0.055,0.017,0.08,0.26,0.055,0.387c-0.176,0.893,0.543,1.615,1.462,1.424c0.75-0.157,1.476-0.428,1.929-1.087
			c0.462-0.673,1.035-0.681,1.716-0.427c0,0.084,0.005,0.168-0.001,0.252c-0.047,0.731,0.266,1.016,1.008,0.886
			c0.229-0.041,0.452-0.125,0.67-0.211c0.356-0.144,0.693-0.351,1.061-0.448c1.127-0.302,1.679-1.143,2.1-2.13
			c0.19-0.445,0.402-0.882,0.623-1.312c0.052-0.101,0.182-0.158,0.275-0.236c0.065,0.105,0.171,0.205,0.189,0.318
			c0.067,0.412,0.1,0.829,0.156,1.242c0.195,1.439,0.917,2.073,2.359,2.094c0.082,0,0.213,0.051,0.237,0.112
			c0.373,0.925,1.34,0.991,2.049,1.423c0.385,0.235,0.77,0.098,1.053-0.193c0.303-0.311,0.6-0.272,0.964-0.166
			c0.575,0.166,1.159,0.346,1.752,0.404c0.304,0.028,0.782-0.106,0.909-0.326c0.16-0.277,0.07-0.719,0.031-1.082
			c-0.02-0.168-0.19-0.313-0.258-0.483c-0.1-0.253-0.027-0.413,0.279-0.446c0.471-0.051,0.794,0.043,0.936,0.574
			c0.355,1.346,1.392,2.05,2.578,2.557c0.682,0.291,1.284-0.231,1.187-0.961c-0.017-0.125-0.003-0.252-0.003-0.41
			c0.824,0,1.613,0.01,2.404-0.002c0.61-0.01,0.918-0.386,0.842-0.983c-0.025-0.193-0.024-0.39-0.043-0.724
			c0.627,0.125,1.188,0.194,1.723,0.353c0.843,0.249,1.189,0.142,1.62-0.612c0.458-0.802,0.444-0.785,1.164-0.219
			c0.604,0.477,1.286,0.639,2.03,0.323c0.666-0.282,0.812-0.873,0.819-1.492c0.009-0.549-0.051-1.104-0.138-1.647
			c-0.104-0.643-0.27-1.275-0.436-2.035c0.178,0.113,0.232,0.129,0.254,0.166c0.061,0.099,0.112,0.203,0.156,0.31
			c0.331,0.808,0.651,1.617,1.331,2.216c0.453,0.4,0.9,0.408,1.345-0.003c0.733-0.677,0.795-1.552,0.565-2.42
			c-0.379-1.442-0.878-2.853-1.28-4.289c-0.244-0.87-0.537-1.759-0.576-2.649c-0.146-3.359-0.17-6.725-0.304-10.084
			c-0.044-1.117-0.198-2.244-0.778-3.254c-0.281-0.492-0.729-0.984-0.767-1.502c-0.084-1.13-0.159-2.332,0.136-3.402
			c0.44-1.598,0.182-3.056-0.308-4.532c-0.369-1.116-0.864-2.193-1.187-3.321c-0.151-0.536-0.25-1.304,0.021-1.697
			c0.562-0.816,0.7-1.65,0.675-2.569c-0.027-1.016,0.235-1.971,0.658-2.874c0.881-1.88,0.283-4.154-1.238-5.266
			c-1.084-0.791-1.382-1.754-1.172-3.051c0.186,0.079,0.369,0.118,0.504,0.222c0.437,0.34,0.887,0.67,1.271,1.064
			c0.604,0.623,1.354,0.455,1.905-0.076c0.426-0.409,0.42-0.597-0.099-0.9c-0.692-0.405-1.409-0.771-2.11-1.162
			c-1.223-0.681-2.141-1.632-2.707-2.933c-0.326-0.746-0.763-1.443-1.112-2.179c-0.101-0.213-0.161-0.507-0.099-0.724
			c0.192-0.672,0.016-1.194-0.646-1.416c-0.52-0.173-1.072-0.312-1.614-0.329c-0.94-0.03-1.784-0.283-2.549-0.813
			c-1.58-1.097-3.149-2.208-4.729-3.305c-0.998-0.692-2.148-1.152-3.312-1.237c-1.405-0.103-2.848,0.112-4.181,0.677
			c-0.518,0.219-0.99,0.53-1.502,0.021c-0.044-0.043-0.123-0.071-0.186-0.07c-0.889,0.013-1.796-0.07-2.662,0.079
			c-0.947,0.162-1.864,0.517-2.78,0.831c-0.959,0.328-1.841,0.809-2.568,1.534c-0.91,0.907-1.454,2.035-1.933,3.203
			c-0.328,0.798-0.54,1.654-1.271,2.236c-0.445,0.354-0.851,0.761-1.251,1.167c-0.465,0.472-0.441,0.819-0.017,1.332
			c0.08,0.096,0.049,0.331-0.002,0.478c-0.328,0.945-0.643,1.896-1.024,2.82c-0.381,0.921-0.774,1.847-1.272,2.707
			c-0.644,1.111-1.433,2.137-2.083,3.244c-0.233,0.398-0.297,0.923-0.328,1.397c-0.013,0.205,0.209,0.518,0.406,0.613
			c0.153,0.074,0.463-0.066,0.65-0.191C5.187,22.767,5.637,22.402,6.099,22.056z"/>
		<path fill="#CE9740" d="M6.099,22.056c-0.462,0.347-0.912,0.711-1.391,1.03c-0.187,0.125-0.497,0.265-0.65,0.191
			c-0.197-0.096-0.419-0.409-0.406-0.613c0.031-0.474,0.095-0.999,0.328-1.397c0.649-1.107,1.439-2.133,2.083-3.244
			c0.498-0.86,0.892-1.786,1.272-2.707c0.382-0.924,0.697-1.875,1.024-2.82c0.051-0.146,0.082-0.382,0.002-0.478
			c-0.424-0.513-0.448-0.86,0.017-1.332c0.4-0.406,0.806-0.813,1.251-1.167c0.731-0.582,0.943-1.438,1.271-2.236
			c0.479-1.168,1.023-2.296,1.933-3.203c0.728-0.725,1.609-1.206,2.568-1.534c0.916-0.313,1.833-0.668,2.78-0.831
			c0.866-0.148,1.773-0.065,2.662-0.079c0.062-0.001,0.142,0.027,0.186,0.07c0.512,0.509,0.984,0.198,1.502-0.021
			c1.333-0.565,2.776-0.779,4.181-0.677c1.162,0.085,2.313,0.544,3.312,1.237c1.58,1.097,3.149,2.208,4.729,3.305
			c0.765,0.53,1.608,0.783,2.549,0.813c0.542,0.018,1.097,0.156,1.614,0.329c0.662,0.222,0.84,0.744,0.646,1.416
			c-0.062,0.216-0.002,0.511,0.099,0.724c0.351,0.736,0.786,1.433,1.112,2.179c0.566,1.3,1.484,2.252,2.707,2.933
			c0.701,0.391,1.418,0.757,2.11,1.162c0.519,0.304,0.524,0.491,0.099,0.9c-0.551,0.53-1.301,0.699-1.905,0.076
			c-0.384-0.394-0.835-0.725-1.271-1.064c-0.135-0.104-0.318-0.144-0.504-0.222c-0.21,1.297,0.088,2.26,1.172,3.051
			c1.521,1.112,2.119,3.386,1.238,5.266c-0.423,0.902-0.688,1.858-0.658,2.874c0.025,0.919-0.113,1.753-0.675,2.569
			c-0.271,0.393-0.172,1.161-0.021,1.697c0.32,1.128,0.816,2.205,1.187,3.321c0.488,1.476,0.748,2.934,0.308,4.531
			c-0.295,1.07-0.22,2.273-0.136,3.403c0.038,0.517,0.484,1.011,0.767,1.502c0.58,1.009,0.734,2.136,0.779,3.253
			c0.133,3.361,0.155,6.727,0.303,10.086c0.039,0.891,0.332,1.778,0.576,2.648c0.402,1.438,0.901,2.847,1.28,4.289
			c0.229,0.868,0.168,1.743-0.565,2.42c-0.443,0.411-0.892,0.402-1.344,0.003c-0.681-0.599-1-1.409-1.332-2.216
			c-0.043-0.105-0.097-0.211-0.156-0.311c-0.021-0.035-0.075-0.052-0.254-0.166c0.166,0.76,0.332,1.394,0.436,2.037
			c0.087,0.543,0.146,1.098,0.138,1.646c-0.009,0.619-0.153,1.209-0.819,1.492c-0.744,0.315-1.426,0.151-2.03-0.323
			c-0.72-0.565-0.706-0.583-1.164,0.219c-0.431,0.753-0.776,0.86-1.62,0.612c-0.535-0.158-1.096-0.227-1.723-0.352
			c0.019,0.334,0.018,0.529,0.043,0.723c0.076,0.598-0.23,0.974-0.842,0.982c-0.791,0.012-1.58,0.004-2.404,0.004
			c0,0.156-0.014,0.284,0.003,0.408c0.099,0.73-0.504,1.253-1.187,0.963c-1.188-0.508-2.223-1.213-2.578-2.558
			c-0.142-0.53-0.465-0.625-0.936-0.574c-0.309,0.034-0.379,0.193-0.279,0.446c0.066,0.17,0.238,0.314,0.258,0.482
			c0.039,0.364,0.129,0.806-0.031,1.082c-0.126,0.219-0.605,0.355-0.909,0.326c-0.592-0.058-1.176-0.236-1.752-0.404
			c-0.364-0.105-0.661-0.144-0.964,0.168c-0.283,0.291-0.668,0.428-1.053,0.192c-0.709-0.432-1.676-0.5-2.049-1.423
			c-0.024-0.061-0.155-0.111-0.237-0.113c-1.442-0.02-2.164-0.652-2.359-2.093c-0.057-0.414-0.089-0.831-0.156-1.241
			c-0.019-0.113-0.124-0.214-0.189-0.32c-0.094,0.078-0.224,0.138-0.275,0.236c-0.221,0.432-0.433,0.867-0.623,1.312
			c-0.421,0.988-0.973,1.828-2.1,2.13c-0.367,0.099-0.704,0.306-1.061,0.448c-0.218,0.087-0.441,0.171-0.67,0.211
			c-0.742,0.13-1.055-0.153-1.008-0.887c0.006-0.082,0.001-0.166,0.001-0.252c-0.682-0.252-1.254-0.244-1.716,0.428
			c-0.454,0.66-1.179,0.93-1.929,1.087c-0.919,0.192-1.638-0.531-1.462-1.423c0.025-0.129,0-0.373-0.055-0.389
			c-0.139-0.042-0.326-0.022-0.46,0.041c-0.145,0.069-0.26,0.211-0.375,0.332c-0.811,0.854-2.204,0.749-3.085,0.262
			c-0.312-0.174-0.455-0.492-0.295-0.869c0.111-0.264,0.23-0.522,0.334-0.787c0.101-0.258,0.188-0.521,0.268-0.746
			c-0.595-0.122-1.151-0.164-1.65-0.354c-0.702-0.27-0.31-0.961-0.443-1.524c-0.184,0.053-0.354,0.088-0.512,0.149
			c-0.822,0.322-1.471-0.171-1.362-1.054c0.186-1.509,0.684-2.938,1.301-4.308c0.504-1.12,0.745-2.28,0.93-3.471
			c0.141-0.906,0.288-1.81,0.447-2.811c-0.235,0.042-0.467,0.07-0.692,0.128c-0.632,0.159-1.185,0.021-1.68-0.399
			c-0.364-0.311-0.428-0.705-0.113-1.015c0.821-0.808,0.867-1.812,0.926-2.866C2.84,46.8,3.272,44.654,4.627,42.82
			c1.184-1.602,1.597-3.463,1.925-5.365c0.122-0.706,0.297-1.403,0.439-2.105c0.038-0.187,0.045-0.379,0.067-0.569
			c-0.047-0.017-0.094-0.034-0.141-0.052c-0.083,0.122-0.156,0.252-0.25,0.364c-0.361,0.431-0.7,0.885-1.102,1.274
			c-0.291,0.281-0.672,0.281-1.018,0.028c-0.336-0.247-0.374-0.581-0.261-0.949c0.112-0.368,0.209-0.743,0.359-1.095
			c0.405-0.947,0.422-1.944,0.51-2.95c0.1-1.139,0.333-2.276,0.624-3.383c0.149-0.564,0.558-1.059,0.841-1.589
			c0.067-0.126,0.103-0.269,0.189-0.501c-0.295,0.07-0.498,0.122-0.701,0.165c-0.195,0.042-0.398,0.125-0.586,0.101
			c-0.835-0.109-0.989-0.628-0.529-1.421c0.442-0.76,0.797-1.571,1.184-2.363c0.033-0.068,0.017-0.161,0.024-0.243
			C6.165,22.131,6.132,22.094,6.099,22.056z M9.585,10.4c0.103-0.074,0.206-0.147,0.309-0.221c0.762-0.263,1.536-0.497,2.28-0.803
			c0.268-0.11,0.574-0.35,0.675-0.605c0.742-1.871,1.817-3.454,3.47-4.668c1.257-0.924,2.597-1.393,4.136-1.258
			c0.408,0.036,0.587-0.081,0.647-0.466c-0.049-0.032-0.086-0.071-0.13-0.081c-0.131-0.03-0.264-0.063-0.396-0.071
			c-1.505-0.08-2.963,0.04-4.418,0.55c-2.221,0.778-3.841,2.092-4.613,4.363c-0.369,1.085-0.802,2.143-1.683,2.939
			c-0.097,0.103-0.193,0.205-0.289,0.308c-0.059,0.03-0.117,0.06-0.248,0.127c0.12,0,0.156,0.011,0.171-0.002
			C9.532,10.481,9.557,10.438,9.585,10.4z M9.145,57.684c-0.755,0.713-1.188,0.817-1.797,0.396c-0.17-0.118-0.291-0.308-0.536-0.576
			c-0.29,0.79-0.542,1.474-0.792,2.16c-0.431,1.178-0.769,2.401-1.323,3.521c-0.347,0.7-0.538,1.387-0.627,2.139
			c-0.042,0.351,0.059,0.516,0.419,0.506c0.387-0.012,0.791,0.051,1.155-0.042c0.35-0.089,0.796-0.256,0.959-0.532
			c0.521-0.875,1.042-1.781,1.357-2.743c0.509-1.556,0.854-3.165,1.267-4.752c0.006-0.036,0.013-0.073,0.019-0.108
			C9.212,57.661,9.178,57.671,9.145,57.684z M29.67,25.083c0.029,0.025,0.059,0.05,0.089,0.076
			c-0.015-0.039-0.028-0.077-0.042-0.115c-0.494-1.52-0.662-3.079-0.607-4.673c0.019-0.518-0.028-1.043-0.101-1.558
			c-0.36-2.615-1.625-4.489-4.322-5.137c-1.027-0.247-2.059-0.464-2.654-1.519c-0.744,1.12-1.735,1.821-2.874,2.324
			c-0.826,0.365-1.357,1.011-1.649,1.817c-0.262,0.719-0.436,1.481-0.558,2.239c-0.214,1.325-0.326,2.667-0.547,3.991
			c-0.08,0.477-0.065,0.787,0.283,1.192c1.137,1.317,2.477,2.049,4.258,1.988c0.876-0.03,1.487-0.298,1.822-1.133
			c0.051-0.127,0.291-0.279,0.403-0.252c0.125,0.03,0.304,0.267,0.285,0.387c-0.06,0.375,0.157,0.508,0.419,0.657
			c0.899,0.515,1.895,0.598,2.885,0.557c0.891-0.037,1.84,0.002,2.528-0.772C29.355,25.075,29.539,25.104,29.67,25.083z
			 M14.799,42.085c-0.062-0.008-0.125-0.017-0.188-0.024c-0.126,0.875-0.355,1.748-0.351,2.621c0.006,0.963,0.201,1.928,0.359,2.885
			c0.258,1.559,0.547,3.11,0.832,4.664c0.246,1.343,0.414,2.686,0.291,4.06c-0.084,0.931-0.144,1.873-0.101,2.804
			c0.061,1.292-0.342,2.457-0.838,3.6c-0.624,1.436-0.894,2.955-1.158,4.479c-0.099,0.566,0.118,0.778,0.697,0.754
			c0.749-0.031,1.056-0.572,1.321-1.154c0.446-0.979,0.913-1.947,1.327-2.939c0.838-2.003,1.526-4.048,1.538-6.26
			c-0.746,0.039-0.92-0.059-1.006-0.727c-0.082-0.632-0.171-1.281-0.109-1.91c0.241-2.44,0.609-4.871,0.795-7.314
			c0.138-1.805,0.176-3.633,0.059-5.438c-0.137-2.092-0.507-4.168-0.732-6.253c-0.039-0.354,0.048-0.79,0.234-1.09
			c0.838-1.346,1.108-2.794,0.924-4.345c-0.03-0.256-0.116-0.505-0.177-0.757c-0.076,0.002-0.153,0.005-0.23,0.007
			c-0.312,1.663-0.71,3.315-0.91,4.991c-0.172,1.429-0.266,2.892,0.09,4.323c0.36,1.451,0.475,2.922,0.376,4.408
			c-0.028,0.428-0.133,0.868-0.294,1.266c-0.23,0.574-0.746,0.83-1.335,0.828c-0.537-0.004-0.839-0.418-1.014-0.867
			c-0.145-0.368-0.206-0.776-0.264-1.172C14.867,43.045,14.843,42.564,14.799,42.085z M33.562,38.386
			c-0.027,0.123-0.049,0.169-0.045,0.214c0.174,2.01-0.213,3.986-0.353,5.979c-0.091,1.316-0.063,2.652,0.044,3.968
			c0.188,2.312,0.492,4.613,0.312,6.938c-0.054,0.668-0.179,1.332-0.237,2c-0.114,1.27-0.03,2.511,0.536,3.689
			c0.188,0.389,0.33,0.812,0.406,1.234c0.355,1.937,0.785,3.85,1.601,5.654c0.075,0.168,0.161,0.336,0.276,0.476
			c0.342,0.414,0.705,0.376,0.941-0.104c0.087-0.175,0.143-0.381,0.15-0.576c0.07-1.687-0.197-3.316-0.854-4.875
			c-0.75-1.777-1.116-3.616-0.974-5.556c0.074-1.021,0.076-2.049,0.093-3.075c0.013-0.768-0.112-1.554,0.015-2.3
			c0.525-3.114,0.807-6.237,0.504-9.39c-0.098-1.014-0.306-2.016-0.461-3.012C34.52,39.727,34.08,39.064,33.562,38.386z
			 M6.532,46.854c0.056,0.043,0.113,0.084,0.169,0.125c0.472-0.457,1.022-0.858,1.4-1.385c0.921-1.279,1.497-2.727,1.919-4.25
			c0.161-0.578,0.532-1.104,0.852-1.629c0.062-0.102,0.331-0.076,0.503-0.109c-0.021,0.166,0,0.353-0.069,0.496
			c-0.188,0.389-0.487,0.735-0.613,1.14c-0.443,1.423-0.948,2.842-1.209,4.303c-0.253,1.412-0.302,2.872-0.321,4.312
			c-0.023,1.785-0.462,3.451-1.095,5.095c-0.251,0.653-0.447,1.337-0.578,2.024c-0.036,0.189,0.206,0.523,0.408,0.637
			c0.129,0.072,0.495-0.074,0.622-0.23c0.738-0.911,1.309-1.908,1.448-3.109c0.087-0.75,0.229-1.496,0.344-2.244
			c0.206-1.342,0.574-2.621,1.324-3.776c0.105-0.162,0.109-0.461,0.04-0.653c-0.616-1.712-0.54-3.479-0.43-5.244
			c0.035-0.576-0.037-1.252,0.729-1.541c-0.341-0.73-0.28-1.448-0.052-2.147c0.422-1.296,0.427-2.601,0.24-3.939
			c-0.34-2.436-1.07-4.837-0.689-7.341c0.003-0.018-0.026-0.04-0.083-0.121c-0.071,0.193-0.134,0.341-0.18,0.495
			c-0.236,0.788-0.421,1.595-0.711,2.362c-0.671,1.777-0.975,3.587-0.721,5.486c0.068,0.512,0.088,1.047,0.021,1.557
			c-0.296,2.24-1.145,4.279-2.385,6.154c-0.659,0.996-0.787,2.127-0.953,3.258C6.449,46.664,6.507,46.762,6.532,46.854z
			 M7.818,30.851c0.173,0.356,0.268,0.816,0.443,0.849c0.255,0.048,0.664-0.135,0.836-0.354c0.337-0.428,0.629-0.923,0.809-1.437
			c0.381-1.093,0.668-2.217,1.011-3.324c0.313-1.014,0.848-1.858,1.854-2.333c0.121-0.057,0.229-0.221,0.27-0.356
			c0.333-1.126,0.596-2.276,0.98-3.383c0.682-1.964,1.435-3.904,2.16-5.854c0.308-0.828,0.709-1.596,1.402-2.18
			c0.616-0.52,1.226-1.047,1.836-1.574c0.602-0.52,1.139-1.043,1.262-1.919c0.103-0.725,0.421-1.418,0.615-2.133
			c0.075-0.277,0.145-0.597,0.07-0.855c-0.032-0.112-0.436-0.174-0.664-0.16c-0.241,0.016-0.492,0.12-0.711,0.237
			c-1.666,0.893-2.793,2.347-3.855,3.838c-1.467,2.061-1.801,4.533-2.322,6.919c-0.331,1.516-0.597,3.034-1.549,4.32
			c-1.391,1.879-2.36,3.992-3.284,6.116C8.483,28.415,8.2,29.651,7.818,30.851z M41.909,21.64c0.038-0.777-0.081-0.989-0.529-1.296
			c-0.315-0.216-0.709-0.407-0.892-0.715c-0.908-1.54-1.666-3.143-1.869-4.959c-0.171-1.52-0.664-2.871-1.852-3.965
			c-2.096-1.933-4.521-3.214-7.201-4.12c-0.906-0.307-1.73-0.867-2.58-1.334c-0.658-0.363-1.258-0.869-1.953-1.12
			c-0.934-0.337-1.928-0.336-2.792,0.286c-0.186,0.133-0.263,0.418-0.39,0.633c0.046,0.033,0.091,0.066,0.137,0.1
			c0.121-0.05,0.237-0.118,0.362-0.145c0.537-0.115,1.104-0.212,1.501,0.272c0.283,0.346,0.555,0.75,0.673,1.172
			c0.24,0.857,0.789,1.311,1.615,1.465c1.137,0.213,2.293,0.345,3.422,0.593c2.569,0.565,4.492,2.012,5.61,4.412
			c0.866,1.859,1.619,3.766,3.073,5.29c0.503,0.527,0.829,1.218,1.308,1.773c0.37,0.428,0.831,0.786,1.29,1.123
			C41.132,21.317,41.49,21.435,41.909,21.64z M21.625,34.698c-0.051-0.003-0.103-0.006-0.154-0.01
			c-0.052,0.185-0.128,0.366-0.152,0.554c-0.185,1.425-0.253,2.859,0.047,4.271c0.574,2.705,0.457,5.271-1.182,7.639
			c-0.353,0.511-0.539,1.158-0.705,1.769c-0.397,1.464-0.315,2.956-0.246,4.459c0.072,1.56-0.022,3.126-0.067,4.688
			c-0.036,1.254-0.351,2.447-0.75,3.636c-0.278,0.83-0.426,1.717-0.521,2.59c-0.064,0.593,0.238,0.815,0.823,0.828
			c0.789,0.017,1.092-0.207,1.395-0.966c0.436-1.088,0.467-2.229,0.473-3.375c0.016-3.357,0.33-6.674,1.142-9.948
			c0.394-1.59,0.579-3.233,0.809-4.86c0.14-0.994,0.346-2.018,0.238-2.996C22.469,40.209,22.019,37.457,21.625,34.698z
			 M5.186,25.666c0.361-0.048,0.641-0.009,0.818-0.125c0.386-0.253,0.849-0.517,1.051-0.898c0.604-1.137,1.09-2.336,1.641-3.503
			c0.206-0.437,0.414-0.886,0.703-1.268c0.869-1.151,1.767-2.253,2.18-3.703c0.191-0.669,0.789-1.227,1.226-1.818
			c0.422-0.571,1.028-1.058,1.282-1.691c0.702-1.749,1.539-3.392,2.852-4.764c1.213-1.269,2.312-2.717,4.17-2.758
			c0.1-0.445,0.184-0.822,0.294-1.315c-0.11-0.056-0.328-0.223-0.571-0.28c-1.168-0.275-2.318-0.083-3.313,0.512
			c-2.138,1.278-3.661,3.098-4.276,5.558c-0.695,2.781-2.059,5.189-3.86,7.393c-1.066,1.304-1.968,2.712-2.334,4.413
			c-0.269,1.253-0.728,2.446-1.497,3.498C5.417,25.096,5.349,25.323,5.186,25.666z M32.777,61.447c0-0.176,0.004-0.287,0-0.397
			c-0.036-1.411-0.266-2.849-0.068-4.227c0.337-2.366,0.223-4.708-0.057-7.039c-0.256-2.138-0.309-4.249-0.043-6.38
			c0.14-1.115,0.31-2.24,0.295-3.359c-0.029-2.1-0.152-4.2-0.303-6.295c-0.047-0.669-0.306-1.324-0.496-2.102
			c-0.111,0.18-0.15,0.218-0.162,0.262c-0.289,1.228-0.291,2.459-0.105,3.704c0.078,0.528,0.119,1.083,0.039,1.604
			c-0.05,0.322-0.298,0.699-0.57,0.878c-0.266,0.174-0.322,0.319-0.304,0.588c0.142,1.961-0.157,3.875-0.547,5.795
			c-0.485,2.397-0.731,4.795,0.258,7.184c0.585,1.41,0.688,2.938,0.322,4.457c-0.019,0.078-0.019,0.166-0.004,0.245
			c0.087,0.528,0.179,1.055,0.271,1.581c0.139,0.777,0.235,1.563,0.43,2.326C31.863,60.785,32.15,61.245,32.777,61.447z
			 M39.359,23.162c-0.037-0.025-0.074-0.05-0.111-0.075c-0.025-0.217,0.001-0.458-0.086-0.646c-0.463-1.001-0.947-1.994-1.438-2.982
			c-0.975-1.956-2.031-3.873-2.918-5.866c-1.107-2.494-2.961-3.978-5.591-4.53c-1.182-0.249-2.39-0.375-3.565-0.642
			c-0.836-0.19-1.395-0.758-1.664-1.605c-0.11-0.345-0.298-0.679-0.513-0.973c-0.108-0.148-0.373-0.293-0.536-0.264
			c-0.271,0.049-0.67,0.184-0.74,0.381c-0.119,0.332-0.131,0.786,0.006,1.106c0.241,0.565,0.608,1.081,0.957,1.595
			c0.527,0.776,1.264,1.324,2.208,1.32c1.973-0.008,3.595,0.903,5.079,1.989c1.055,0.771,1.959,1.805,2.754,2.854
			c0.571,0.755,1.043,1.692,1.222,2.614c0.245,1.264,0.952,2.187,1.781,3.01c0.564,0.562,1.031,1.131,1.346,1.847
			c0.223,0.507,0.473,1.003,0.672,1.52c0.135,0.355,0.406,0.423,0.617,0.224C39.076,23.813,39.191,23.459,39.359,23.162z
			 M23.504,30.045c-0.112,0.282-0.202,0.546-0.318,0.797c-0.5,1.078-0.908,2.207-0.843,3.391c0.08,1.452,0.297,2.901,0.529,4.34
			c0.379,2.342,0.798,4.676,0.442,7.062c-0.059,0.397-0.101,0.802-0.098,1.203c0.003,0.484,0.404,0.707,0.787,0.42
			c0.209-0.155,0.385-0.436,0.446-0.69c0.113-0.469,0.169-0.961,0.185-1.445c0.057-1.833,0.025-3.672,0.154-5.5
			c0.065-0.938,0.397-1.857,0.608-2.786c0.051-0.226,0.127-0.451,0.141-0.679c0.041-0.772,0.021-1.549,0.093-2.317
			c0.146-1.574,0.729-3.033,1.31-4.481c0.328-0.819,0.365-1.629,0.242-2.47c-0.018-0.112-0.16-0.288-0.252-0.294
			c-0.479-0.03-0.962-0.014-1.42-0.014C25.253,28.033,25.05,29.457,23.504,30.045z M40.531,37.07
			c0.529,1.875,0.421,3.865,0.385,5.845c-0.04,2.187-0.164,4.37-0.203,6.555c-0.02,1.078,0.232,2.106,0.633,3.128
			c0.404,1.037,0.633,2.147,0.896,3.235c0.216,0.896,0.354,1.81,0.565,2.705c0.047,0.202,0.282,0.53,0.391,0.515
			c0.252-0.037,0.598-0.191,0.693-0.396c0.223-0.475,0.444-1.012,0.438-1.52c-0.013-0.949-0.079-1.926-0.313-2.842
			c-0.518-2.013-0.627-4.027-0.502-6.096c0.09-1.484-0.062-2.984-0.154-4.475c-0.014-0.233-0.232-0.586-0.436-0.656
			c-0.758-0.256-0.994-0.795-0.992-1.514c0.002-1.023,0.031-2.049,0.01-3.072c-0.014-0.658-0.098-1.314-0.147-1.959
			C41.332,36.723,40.98,36.875,40.531,37.07z M39.129,20.407c-0.038,0.033-0.077,0.065-0.115,0.097
			c0.078,0.142,0.154,0.285,0.235,0.426c0.399,0.697,0.666,1.436,0.638,2.25c-0.021,0.609-0.162,1.165-0.787,1.467
			c-0.091,0.044-0.188,0.203-0.182,0.302c0.085,1.273,0.172,2.547,0.291,3.817c0.1,1.059,0.241,2.115,0.982,2.962
			c0.267,0.304,0.539,0.602,0.822,0.887c0.44,0.443,0.717,0.957,0.834,1.578c0.127,0.672,0.297,1.337,0.461,2.002
			c0.228,0.918,0.338,1.834,0.27,2.793c-0.069,0.969,0.007,1.949,0.05,2.923c0.015,0.337,0.233,0.56,0.599,0.553
			c0.379-0.007,0.453-0.264,0.457-0.587c0.008-0.538,0.006-1.079,0.062-1.613c0.093-0.881,0.262-1.754,0.336-2.636
			c0.069-0.812,0.201-1.659,0.045-2.438c-0.239-1.194-0.672-2.354-1.084-3.507c-0.351-0.977-0.888-1.895-0.78-2.99
			c0.008-0.091-0.046-0.195-0.088-0.285c-0.503-1.079-0.527-2.204-0.361-3.358c0.125-0.863,0.283-1.739-0.076-2.586
			c-0.061-0.145-0.211-0.27-0.35-0.358c-0.391-0.25-0.818-0.442-1.187-0.719C39.814,21.098,39.482,20.737,39.129,20.407z
			 M21.677,7.449c-0.304,0.717-0.408,1.302,0.007,1.989c0.528,0.873,1.144,1.602,2.137,1.877c1.049,0.291,2.121,0.506,3.188,0.723
			c2.136,0.433,3.429,1.732,3.985,3.807c0.227,0.844,0.379,1.712,0.677,2.53c0.614,1.687,1.295,3.35,1.964,5.016
			c0.336,0.833,0.493,1.679,0.307,2.565c-0.297,1.406,0.274,2.637,0.772,3.879c0.149,0.377,0.486,0.469,0.875,0.439
			c0.408-0.031,0.733-0.159,0.808-0.607c0.211-1.265,0.141-2.485-0.385-3.694c-0.449-1.039-0.844-2.119-1.107-3.218
			c-0.361-1.501-0.553-3.042-0.86-4.557c-0.337-1.659-1.163-3.052-2.349-4.266c-1.711-1.753-3.602-3.102-6.155-3.276
			c-1.357-0.092-2.412-0.756-3.096-1.965C22.215,8.288,21.957,7.902,21.677,7.449z M9.198,32.158
			C8.886,32.324,8.6,32.38,8.504,32.546c-0.206,0.356-0.358,0.757-0.455,1.159c-0.455,1.893-0.843,3.803-1.339,5.684
			c-0.236,0.897-0.511,1.846-1.024,2.596c-1.513,2.207-2.345,4.604-2.386,7.268c-0.016,1.03-0.184,1.958-0.934,2.732
			c-0.326,0.336-0.219,0.566,0.246,0.709c0.761,0.232,1.567-0.062,2.092-0.748c0.151-0.198,0.337-0.37,0.5-0.562
			c0.487-0.571,1.012-1.116,1.444-1.726c0.607-0.857,1.153-1.758,1.707-2.651c0.158-0.255,0.251-0.549,0.375-0.825
			c-0.045-0.021-0.091-0.043-0.137-0.062c-0.438,0.387-0.851,0.809-1.325,1.146c-0.229,0.162-0.592,0.271-0.858,0.219
			c-0.397-0.077-0.56-0.45-0.573-0.854c-0.005-0.134-0.001-0.271,0.02-0.403c0.201-1.266,0.458-2.5,1.238-3.58
			c0.39-0.539,0.688-1.158,0.956-1.771c0.606-1.389,1.153-2.801,1.149-4.355C9.195,35.113,9.198,33.704,9.198,32.158z
			 M16.122,24.109c-0.728,1.109-0.941,2.33-0.756,3.61c0.19,1.318-0.021,2.575-0.431,3.817c-0.295,0.894-0.345,1.809-0.258,2.741
			c0.153,1.63,0.682,3.204,0.517,4.893c-0.102,1.043,0.176,2.125,0.291,3.188c0.068,0.634,0.126,1.271,0.24,1.896
			c0.055,0.303,0.173,0.652,0.594,0.635c0.432-0.017,0.695-0.293,0.748-0.69c0.084-0.63,0.19-1.275,0.133-1.9
			c-0.121-1.301-0.41-2.587-0.508-3.888c-0.162-2.172-0.072-4.345,0.467-6.468c0.452-1.783,0.981-3.546,1.463-5.322
			c0.047-0.173,0.063-0.485-0.028-0.544c-0.872-0.567-1.702-1.18-2.402-1.956C16.175,24.102,16.128,24.11,16.122,24.109z
			 M25.788,37.783c-0.035-0.012-0.07-0.021-0.104-0.032c-0.084,0.606-0.22,1.213-0.24,1.823c-0.062,1.73-0.062,3.465-0.118,5.197
			c-0.033,1.012-0.116,2.056-0.76,2.877c-0.312,0.398-0.364,0.762-0.343,1.195c0.119,2.344-0.153,4.666-0.335,6.996
			c-0.084,1.083-0.082,2.193,0.054,3.27c0.161,1.281,0.389,1.398,1.646,1.438c0.151,0.005,0.304,0.021,0.454,0.02
			c0.453-0.006,0.744-0.289,0.761-0.746c0.033-0.912,0.025-1.814-0.458-2.645c-0.158-0.271-0.248-0.587-0.354-0.888
			c-0.686-1.95-0.43-3.916-0.059-5.873c0.414-2.19,0.926-4.366,1.276-6.567c0.14-0.877,0.118-1.845-0.104-2.701
			C26.805,39.989,26.238,38.9,25.788,37.783z M27.855,41.412c0.086,1.744,0.072,3.461-0.412,5.13
			c-0.439,1.521-0.473,3.03,0.136,4.494c0.604,1.457,1.321,2.866,1.625,4.435c0.043,0.221,0.259,0.435,0.442,0.596
			c0.319,0.278,0.649,0.172,0.781-0.229c0.053-0.157,0.088-0.328,0.096-0.494c0.053-1.184-0.021-2.347-0.396-3.489
			c-0.363-1.11-0.872-2.201-0.734-3.42c0.187-1.666,0.258-3.36,0.615-4.992c0.537-2.443,0.569-4.812-0.312-7.173
			c-0.164-0.443-0.262-0.911-0.403-1.417c-0.056,0.088-0.094,0.137-0.119,0.191c-0.663,1.424-0.62,2.911-0.334,4.399
			C29.029,40.434,28.809,40.973,27.855,41.412z M22.985,47.891c-0.18,0.939-0.299,1.873-0.541,2.771
			c-0.947,3.52-1.206,7.111-1.241,10.734c-0.004,0.469-0.006,0.947-0.096,1.404c-0.213,1.09-0.426,2.172-0.219,3.288
			c0.104,0.56,0.164,1.134,0.328,1.675c0.142,0.469,0.773,0.818,1.201,0.754c0.558-0.084,0.656-0.537,0.7-0.977
			c0.063-0.635,0.055-1.275,0.107-1.913c0.092-1.119,0.229-2.235,0.302-3.354c0.049-0.729,0.188-1.514-0.014-2.183
			c-0.388-1.293-0.415-2.581-0.319-3.889c0.188-2.562,0.581-5.113,0.352-7.695C23.515,48.16,23.447,47.919,22.985,47.891z
			 M12.048,48.919c-0.144,0.185-0.237,0.272-0.294,0.381c-0.696,1.326-0.885,2.792-1,4.24c-0.108,1.365,0.023,2.749,0.036,4.125
			c0.017,1.761-0.235,3.468-0.827,5.146c-0.452,1.278-0.746,2.615-1.08,3.934c-0.093,0.367-0.158,0.798,0.316,1.003
			c0.46,0.198,0.808-0.008,1-0.415c0.428-0.909,0.961-1.801,1.196-2.762c0.728-2.979,1.34-5.988,1.986-8.987
			c0.048-0.224,0.041-0.476-0.005-0.7c-0.35-1.708-0.713-3.413-1.08-5.117C12.242,49.514,12.151,49.27,12.048,48.919z M38.591,8.053
			c0.146-0.091,0.457-0.178,0.507-0.343c0.1-0.329-0.178-0.521-0.481-0.581c-0.394-0.076-0.794-0.135-1.193-0.163
			c-1.098-0.077-2.104-0.402-3.011-1.033c-1.653-1.153-3.256-2.391-4.984-3.417c-0.894-0.531-1.992-0.818-3.035-0.963
			c-0.804-0.112-1.677,0.105-2.491,0.293c-0.66,0.152-1.306,0.429-1.91,0.744c-0.586,0.305-0.559,0.594,0.028,0.909
			c0.137,0.073,0.344,0.046,0.513,0.022c0.38-0.055,0.754-0.169,1.135-0.201c1.363-0.113,2.457,0.517,3.518,1.277
			c0.609,0.437,1.248,0.861,1.93,1.168c1.115,0.503,2.273,0.911,3.42,1.345c0.166,0.063,0.369,0.098,0.54,0.063
			c1.317-0.264,2.553,0.231,3.821,0.401C37.434,7.648,37.951,7.868,38.591,8.053z M22.538,11.486
			c-0.006,0.019-0.03,0.053-0.023,0.079c0.018,0.063,0.046,0.125,0.078,0.183c0.385,0.699,0.993,1.054,1.766,1.203
			c2.86,0.551,4.593,2.221,5.108,5.06c0.215,1.181,0.19,2.404,0.317,3.604c0.097,0.915,0.163,1.851,0.421,2.725
			c0.312,1.065,0.844,2.062,1.811,2.717c0.547,0.369,0.916,0.254,1.146-0.35c0.382-1.004,0.275-2.007-0.077-2.998
			c-0.954-2.683-2.226-5.245-2.83-8.065c-0.284-1.322-1.159-2.39-2.616-2.745c-1.205-0.293-2.414-0.568-3.613-0.884
			C23.519,11.882,23.034,11.666,22.538,11.486z M8.354,48.22c-0.25,0.32-0.574,0.608-0.736,0.968
			c-0.493,1.092-1.198,2.014-2.04,2.851c-0.219,0.218-0.43,0.5-0.512,0.79c-0.226,0.807-0.432,1.625-0.555,2.452
			c-0.226,1.516-0.541,2.989-1.12,4.427c-0.531,1.314-0.851,2.716-1.243,4.085c-0.043,0.149-0.002,0.431,0.096,0.489
			c0.143,0.084,0.399,0.08,0.56,0.008C3.042,64.182,3.256,64,3.452,63.82c0.895-0.822,1.21-1.959,1.604-3.045
			c0.342-0.942,0.577-1.926,0.951-2.854c0.607-1.506,1.343-2.962,1.928-4.476C8.578,51.785,8.519,50.029,8.354,48.22z
			 M13.645,14.602c-0.139,0.059-0.219,0.075-0.277,0.12c-0.634,0.483-1.06,1.123-1.295,1.874c-0.29,0.925-0.654,1.806-1.322,2.524
			c-1.132,1.217-1.764,2.677-2.131,4.273c-0.251,1.093-0.698,2.096-1.34,3.019c-0.861,1.236-1.417,2.574-1.493,4.113
			c-0.054,1.085-0.204,2.17-0.388,3.241c-0.099,0.573-0.376,1.113-0.542,1.676c-0.046,0.159,0.015,0.349,0.027,0.524
			c0.185-0.049,0.435-0.04,0.542-0.158c0.289-0.319,0.559-0.67,0.76-1.049c0.439-0.828,0.834-1.679,1.238-2.525
			c0.052-0.108,0.1-0.264,0.061-0.363c-0.268-0.682-0.163-1.359-0.002-2.035c0.694-2.917,2.079-5.537,3.639-8.052
			c0.914-1.473,1.789-2.907,1.991-4.675C13.207,16.287,13.453,15.482,13.645,14.602z M44.348,42.516
			c-0.082-0.002-0.166-0.005-0.25-0.007c-0.065,0.242-0.236,0.513-0.183,0.722c0.403,1.541,0.388,3.101,0.29,4.666
			c-0.098,1.547-0.223,3.094,0.08,4.631c0.193,0.988,0.467,1.966,0.611,2.961c0.162,1.1,0.24,2.213-0.291,3.269
			c-0.082,0.165-0.08,0.399-0.049,0.591c0.149,0.896,0.252,1.809,0.508,2.674c0.289,0.977,0.707,1.916,1.106,2.857
			c0.146,0.346,0.41,0.63,0.866,0.539c0.441-0.088,0.55-0.47,0.559-0.805c0.018-0.6,0.016-1.225-0.131-1.799
			c-0.277-1.09-0.703-2.141-0.997-3.226c-0.438-1.62-0.903-3.229-0.879-4.946c0.048-3.216,0.06-6.433-0.317-9.637
			C45.164,44.08,44.83,43.273,44.348,42.516z M26.758,50.461c-0.062,0.009-0.124,0.018-0.186,0.027
			c-0.422,2.267-0.646,4.518,0.466,6.689c0.521,1.018,0.604,2.109,0.3,3.188c-0.139,0.489-0.221,0.94-0.111,1.422
			c0.373,1.638,0.76,3.272,1.137,4.907c0.18,0.781,0.539,1.068,1.344,1.057c0.533-0.008,0.852-0.339,0.771-0.865
			c-0.061-0.396-0.135-0.804-0.293-1.167c-0.688-1.569-0.965-3.208-0.968-4.911c-0.004-1.824,0.099-3.642-0.677-5.4
			C27.835,53.809,27.343,52.114,26.758,50.461z M37.568,48.095c-0.051-0.011-0.101-0.021-0.149-0.032
			c-0.11,0.869-0.274,1.733-0.321,2.605c-0.054,0.991-0.01,1.987,0.006,2.98c0.006,0.494-0.172,0.836-0.654,1.021
			c-0.126,0.048-0.293,0.216-0.295,0.33c-0.01,1.764-0.223,3.568,0.076,5.282c0.307,1.745,0.688,3.585,2.062,4.948
			c0.268,0.266,0.576,0.377,0.854,0.188c0.186-0.127,0.35-0.466,0.324-0.688c-0.07-0.646-0.164-1.312-0.39-1.918
			c-0.71-1.899-0.886-3.847-0.776-5.854c0.066-1.242,0.08-2.5-0.033-3.735C38.111,51.505,37.809,49.803,37.568,48.095z
			 M12.951,24.946c-0.439,0.115-0.586,0.328-0.566,0.771c0.021,0.491-0.106,0.989-0.174,1.483c-0.066,0.482-0.231,0.971-0.19,1.442
			c0.134,1.52,0.279,3.044,0.539,4.547c0.337,1.956,0.586,3.884-0.051,5.833c-0.128,0.392-0.075,0.865-0.018,1.289
			c0.057,0.428,0.436,0.631,0.813,0.608c0.229-0.014,0.527-0.226,0.644-0.433c0.227-0.402,0.408-0.853,0.497-1.305
			c0.236-1.211,0.018-2.399-0.23-3.595c-0.279-1.343-0.4-2.723,0.057-4.042c0.561-1.621,0.623-3.246,0.329-4.908
			C13.484,26.887,13.407,26.809,12.951,24.946z M38.814,35.708c0.096,1.147,0.305,2.173,0.234,3.181
			c-0.107,1.551-0.418,3.086-0.615,4.631c-0.111,0.865-0.562,1.693-0.271,2.608c0.085,0.265,0.08,0.56,0.103,0.84
			c0.074,0.984,0.125,1.97,0.221,2.952c0.07,0.7,0.189,1.395,0.302,2.09c0.132,0.828,0.26,1.658,0.433,2.477
			c0.037,0.176,0.301,0.459,0.393,0.434c0.21-0.055,0.418-0.24,0.547-0.428c0.115-0.169,0.175-0.412,0.176-0.622
			c0.001-0.804,0.066-1.625-0.068-2.408c-0.416-2.383-0.17-4.761-0.088-7.144c0.057-1.594,0.096-3.192,0.051-4.786
			c-0.023-0.796-0.385-1.589-0.353-2.374C39.913,36.322,39.312,36.182,38.814,35.708z M36.757,47.832
			c0.052-0.139,0.132-0.293,0.166-0.458c0.36-1.675,0.7-3.354,1.074-5.026c0.386-1.724,0.521-3.451,0.295-5.209
			c-0.116-0.915-0.142-1.831-0.574-2.689c-0.411-0.819-0.735-1.685-1.062-2.544c-0.139-0.366-0.186-0.767-0.271-1.15
			c-0.342,0.077-0.617,0.14-0.935,0.211c0,0.188,0.008,0.369-0.001,0.549c-0.035,0.721,0.002,1.457-0.133,2.159
			c-0.221,1.168-0.146,2.246,0.229,3.403c0.743,2.306,1.089,4.71,1.202,7.134C36.803,45.416,36.757,46.626,36.757,47.832z
			 M35.042,20.16c0.017,0.143,0.024,0.281,0.051,0.416c0.082,0.429,0.151,0.862,0.263,1.284c0.302,1.151,0.432,2.4,0.981,3.42
			c0.733,1.358,0.948,2.744,0.78,4.183c-0.107,0.924,0.048,1.756,0.24,2.625c0.397,1.801,1.564,3.008,3.014,4.005
			c0.459,0.316,0.658,0.247,0.777-0.304c0.224-1.042,0.189-2.017-0.694-2.824c-0.966-0.881-1.652-1.949-1.763-3.302
			c-0.073-0.904-0.104-1.813-0.209-2.713c-0.104-0.909,0.107-1.915-0.721-2.631c-0.059-0.049-0.076-0.149-0.102-0.229
			C37.162,22.548,36.32,21.232,35.042,20.16z M41.215,53.822c-0.061,0.015-0.119,0.029-0.178,0.043
			c-0.494,1.765-0.391,3.574-0.255,5.357c0.167,2.207,0.508,4.4,0.769,6.602c0.104,0.863,0.613,1.482,1.33,1.84
			c0.68,0.337,1.696,0.195,1.604-0.971c-0.043-0.534-0.049-1.082-0.17-1.599c-0.381-1.634-0.855-3.247-0.787-4.954
			c0.007-0.132-0.172-0.385-0.266-0.386c-0.668-0.012-0.925-0.485-1.061-0.987c-0.235-0.871-0.389-1.765-0.562-2.651
			C41.488,55.354,41.355,54.587,41.215,53.822z M27.859,26.583c0,0.062-0.012,0.179,0.002,0.292c0.137,1.059-0.077,2.048-0.442,3.05
			c-0.446,1.225-0.823,2.484-1.104,3.757c-0.519,2.352,0.219,4.521,1.158,6.634c0.062,0.141,0.301,0.334,0.387,0.304
			c0.16-0.056,0.351-0.247,0.375-0.406c0.043-0.252-0.029-0.526-0.073-0.789c-0.246-1.479-0.285-2.946,0.315-4.363
			c0.453-1.066,0.664-2.163,0.662-3.332c-0.002-1.559,0.104-3.12,0.194-4.678c0.022-0.398,0.173-0.789,0.261-1.168
			C29.021,26.115,28.482,26.331,27.859,26.583z M14.192,59.912c0.091,0.014,0.183,0.027,0.273,0.041
			c0.121-0.335,0.309-0.662,0.353-1.006c0.135-1.066,0.324-2.145,0.288-3.209c-0.047-1.404-0.248-2.809-0.458-4.201
			c-0.217-1.444-0.482-2.885-0.803-4.309c-0.273-1.222-0.303-2.434-0.129-3.658c0.098-0.687,0.238-1.366,0.34-1.938
			c-0.513-0.074-0.945-0.085-1.343-0.209c-0.471-0.146-0.754-0.055-0.777,0.458c-0.053,1.226-0.192,2.472-0.03,3.675
			c0.187,1.383,0.606,2.745,1.021,4.088c0.856,2.774,1.279,5.596,1.144,8.5C14.045,58.73,14.148,59.323,14.192,59.912z
			 M39.041,13.147c-0.021,0.052-0.05,0.085-0.046,0.112c0.269,1.66,0.54,3.322,1.323,4.836c0.365,0.706,0.695,1.412,1.506,1.812
			c0.767,0.379,0.908,1.265,0.519,2.068c-0.043,0.089-0.017,0.22-0.003,0.329c0.07,0.543,0.213,1.087,0.206,1.629
			c-0.011,0.854-0.147,1.706-0.179,2.561c-0.018,0.509,0.037,1.03,0.463,1.567c0.105-0.27,0.225-0.453,0.242-0.646
			c0.064-0.651,0.012-1.325,0.154-1.956c0.233-1.027,0.635-2.017,0.877-3.043c0.35-1.482,0.184-2.88-0.976-4.009
			c-0.3-0.292-0.622-0.568-0.966-0.806c-0.732-0.504-1.07-2.293-0.643-2.852C40.697,14.218,39.87,13.683,39.041,13.147z
			 M21.082,26.412c-0.46-0.047-0.865-0.059-1.258-0.137c-0.352-0.07-0.482,0.06-0.56,0.381c-0.252,1.063-0.215,2.117-0.054,3.197
			c0.129,0.87,0.154,1.775,0.069,2.649c-0.066,0.687-0.369,1.352-0.57,2.025c-0.158,0.53-0.26,1.053,0.135,1.534
			c0.298,0.362,0.745,0.387,0.998,0.002c0.265-0.403,0.476-0.844,0.684-1.281c0.245-0.515,0.439-1.054,0.697-1.562
			c0.537-1.056,1.101-2.097,1.667-3.168C21.191,29.341,21.14,27.883,21.082,26.412z M4.216,22.834
			c0.627-0.557,1.152-1.017,1.669-1.486c0.256-0.232,0.637-0.441,0.719-0.729c0.399-1.394,1.203-2.545,2.054-3.673
			c1.214-1.608,2.486-3.179,3.194-5.103c0.215-0.585,0.417-1.175,0.67-1.893c-0.529,0.18-0.884,0.328-1.253,0.42
			c-0.85,0.211-1.506,0.695-1.884,1.464c-0.515,1.05-1.045,2.109-1.392,3.219C7.597,16.319,7.1,17.505,6.31,18.573
			c-0.528,0.715-1.03,1.452-1.508,2.201C4.44,21.343,4.173,21.959,4.216,22.834z M21.219,10.016
			c-0.69,0.634-1.376,1.266-2.064,1.895c-0.791,0.721-1.734,1.314-2.128,2.38c-0.378,1.023-0.707,2.066-1.074,3.094
			c-0.684,1.912-1.392,3.815-2.065,5.73c-0.289,0.824-0.328,1.682-0.14,2.539c0.106,0.486,0.395,0.579,0.742,0.222
			c0.194-0.2,0.341-0.46,0.461-0.716c0.678-1.434,0.907-2.98,1.13-4.53c0.188-1.312,0.33-2.637,0.631-3.925
			c0.27-1.154,0.891-2.128,2.025-2.693c0.568-0.283,1.122-0.61,1.635-0.984C21.61,12.123,21.794,11.357,21.219,10.016z
			 M29.811,56.913c0.03,1.532,0.06,2.995,0.088,4.457c0.024,1.2,0.18,2.368,0.651,3.495c0.328,0.783,0.735,1.6,0.536,2.478
			c-0.15,0.667,0.061,1.224,0.28,1.798c0.354,0.92,1.161,1.354,1.987,1.738c0.149,0.07,0.375-0.02,0.564-0.036
			c-0.031-0.188-0.027-0.393-0.104-0.562c-0.207-0.459-0.483-0.889-0.666-1.355c-0.756-1.956-1.215-3.977-1.315-6.08
			c-0.024-0.508-0.144-1.021-0.29-1.511c-0.161-0.538-0.479-1.036-0.598-1.58c-0.209-0.963-0.319-1.948-0.475-2.944
			C30.216,56.85,29.988,56.885,29.811,56.913z M18.162,36.478c0.201,1.594,0.33,3.217,0.628,4.81
			c0.272,1.455,0.341,2.896,0.228,4.358c-0.071,0.938-0.132,1.875-0.204,2.914c0.316-0.666,0.524-1.276,0.868-1.799
			c1.111-1.688,1.544-3.521,1.298-5.517c-0.198-1.606-0.625-3.19-0.405-4.858c-0.409,0.28-0.766,0.714-1.131,0.722
			C19.046,37.118,18.639,36.73,18.162,36.478z M25.283,61.299c-0.008,0.139-0.03,0.303-0.021,0.467
			c0.062,1.224,0.055,2.457,0.215,3.668c0.146,1.104,0.455,2.189,0.73,3.274c0.057,0.222,0.266,0.414,0.425,0.601
			c0.552,0.643,1.353,0.605,2.086,0.735c0.2,0.036,0.419-0.03,0.63-0.05c-0.037-0.238-0.024-0.5-0.123-0.709
			c-0.269-0.566-0.449-1.19-1.086-1.52c-0.168-0.086-0.256-0.393-0.311-0.613c-0.409-1.659-0.816-3.319-1.189-4.986
			c-0.231-1.031-0.205-1.037-1.275-0.915C25.35,61.254,25.336,61.268,25.283,61.299z M13.369,59.129
			c-0.043,0.13-0.087,0.234-0.112,0.341c-0.326,1.39-0.639,2.78-0.977,4.166c-0.435,1.781-0.859,3.566-2.349,4.851
			c-0.16,0.139-0.182,0.498-0.169,0.748c0.005,0.107,0.252,0.25,0.412,0.293c0.896,0.25,2.695-0.889,2.829-2.15
			c0.194-1.828,0.627-3.6,1.368-5.293c0.209-0.479,0.339-0.991,0.52-1.532C13.893,60.675,13.798,60.579,13.369,59.129z
			 M32.154,27.886c0.063,0.709,0.125,1.43,0.195,2.15c0.021,0.213,0.049,0.43,0.106,0.635c0.396,1.382,0.954,2.729,0.792,4.221
			c-0.137,1.272,0.354,2.374,1.053,3.387c0.2,0.291,0.516,0.503,0.778,0.751c0.237-0.774,0.021-1.396-0.218-1.996
			c-0.413-1.037-0.424-2.071-0.236-3.165c0.152-0.899,0.111-1.833,0.132-2.751c0.003-0.166-0.1-0.344-0.184-0.5
			c-0.273-0.511-0.601-0.998-0.829-1.527c-0.189-0.437-0.271-0.921-0.385-1.322C32.88,27.815,32.46,27.856,32.154,27.886z
			 M45.454,15.613c-0.742-0.424-1.401-0.811-2.07-1.18c-1.491-0.822-2.618-1.968-3.229-3.584c-0.159-0.423-0.313-0.856-0.532-1.249
			c-0.271-0.484-0.59-0.928-1.21-1.046c-1.281-0.243-2.557-0.52-3.836-0.772C34.42,7.75,34.252,7.777,34.09,7.777
			c1.797,1.196,3.283,2.678,4.75,4.173c0.963,0.982,1.947,1.888,3.328,2.237c0.169,0.043,0.32,0.182,0.462,0.299
			c0.464,0.385,0.915,0.786,1.38,1.171C44.471,16.04,44.779,16.042,45.454,15.613z M37.8,65.959
			c0.019,0.343,0.062,0.793,0.063,1.244c0,0.298,0.029,0.484,0.396,0.559c0.438,0.09,0.851,0.301,1.279,0.441
			c0.63,0.208,0.817,0.117,1.139-0.46c0.472-0.851,0.206-1.757,0.14-2.615c-0.178-2.29-0.5-4.567-0.711-6.854
			c-0.08-0.879-0.013-1.771-0.013-2.672c-0.387-0.024-0.714-0.045-1.042-0.066c-0.014,0.029-0.037,0.061-0.039,0.091
			c-0.011,0.336,0.008,0.675-0.029,1.008c-0.233,2.091,0.031,4.11,0.731,6.099c0.251,0.715,0.312,1.507,0.388,2.271
			c0.051,0.515-0.312,1-0.813,1.06C38.822,66.117,38.337,66.004,37.8,65.959z M30.256,26.111c-0.104,0.294-0.222,0.504-0.249,0.725
			c-0.095,0.766-0.2,1.534-0.225,2.304c-0.036,1.176-0.062,2.358,0.011,3.531c0.064,1.061,0.245,2.117,0.417,3.168
			c0.074,0.459,0.231,0.911,0.401,1.347c0.053,0.139,0.262,0.215,0.397,0.32c0.087-0.133,0.226-0.259,0.245-0.4
			c0.041-0.297,0.043-0.604,0.018-0.902c-0.033-0.401-0.113-0.798-0.164-1.197c-0.187-1.48,0.047-2.923,0.502-4.321
			c0.39-1.197-0.219-2.255-0.346-3.379c-0.002-0.029-0.035-0.056-0.057-0.082C30.916,26.882,30.623,26.541,30.256,26.111z
			 M9.989,57.85c-0.076,0.12-0.183,0.232-0.224,0.364c-0.237,0.767-0.47,1.535-0.683,2.31c-0.256,0.937-0.4,1.916-0.759,2.809
			c-0.403,1.002-0.808,2.057-1.665,2.786c-0.624,0.53-0.796,1.291-1.145,1.96c-0.053,0.102,0.094,0.447,0.176,0.458
			c0.576,0.073,1.168,0.162,1.734,0.088C7.722,68.585,8.018,68.262,8.235,68c0.092-0.111-0.031-0.391-0.035-0.595
			c-0.004-0.2-0.016-0.41,0.035-0.601c0.408-1.523,0.782-3.06,1.262-4.561C9.954,60.816,10.19,59.379,9.989,57.85z M35.922,69.4
			c-1.59-2.314-1.92-4.998-2.453-7.562c-0.365,0.129-0.682,0.241-1.01,0.356c0.064,2.566,0.561,5.058,1.65,7.328
			C34.768,69.479,35.34,69.439,35.922,69.4z M24.379,61.059c-0.058,0.022-0.114,0.045-0.172,0.068c0,0.35,0.023,0.701-0.004,1.049
			c-0.114,1.471-0.234,2.941-0.369,4.41c-0.052,0.564-0.174,1.123-0.215,1.688c-0.03,0.418-0.169,0.914,0.289,1.189
			c0.429,0.258,0.895,0.469,1.367,0.631c0.152,0.053,0.433-0.062,0.557-0.191c0.088-0.092,0.052-0.354,0-0.517
			c-0.279-0.876-0.731-1.727-0.843-2.62c-0.22-1.761-0.25-3.543-0.375-5.315C24.604,61.314,24.46,61.189,24.379,61.059z
			 M24.978,26.533c-0.691-0.376-1.298-0.714-1.915-1.03c-0.068-0.035-0.218,0.038-0.305,0.097c-0.334,0.231-0.658,0.477-1.023,0.744
			c0.028,0.508,0.036,1.092,0.101,1.67c0.074,0.658,0.614,1.311,1.08,1.377c0.726,0.104,1.147-0.129,1.491-0.968
			C24.655,27.813,24.794,27.157,24.978,26.533z M17.22,64.677c-0.333,0.794-0.565,1.476-0.899,2.103
			c-0.286,0.537-0.608,1.109-1.065,1.48c-0.372,0.303-0.438,0.545-0.372,0.932c0.687,0.076,2.906-0.832,3.245-1.393
			c0.367-0.607,0.64-1.273,0.979-1.966C18.26,65.784,17.583,65.6,17.22,64.677z M18.211,56.826c0.056,0.021,0.112,0.044,0.168,0.066
			c0.099-0.221,0.286-0.443,0.281-0.662c-0.039-1.746-0.114-3.491-0.183-5.371C18.189,51.986,18.031,55.975,18.211,56.826z
			 M36.695,48.955c-0.063-0.018-0.127-0.033-0.19-0.049c-0.037,0.103-0.092,0.201-0.108,0.308c-0.062,0.378-0.121,0.757-0.16,1.138
			c-0.116,1.104-0.543,2.187-0.241,3.316c0.047,0.174,0.17,0.452,0.28,0.463c0.363,0.036,0.287-0.29,0.289-0.508
			c0.006-1.025-0.017-2.055,0.002-3.08C36.576,50.014,36.65,49.484,36.695,48.955z M8.681,11.098
			c0.015,0.017,0.031,0.033,0.046,0.05c0.172-0.155,0.345-0.31,0.517-0.465c-0.014-0.015-0.028-0.031-0.042-0.046
			C9.028,10.79,8.854,10.944,8.681,11.098z"/>
		<path fill="#FEEED3" d="M29.669,25.083c-0.13,0.02-0.313-0.008-0.381,0.067c-0.688,0.774-1.64,0.736-2.528,0.772
			c-0.99,0.041-1.985-0.042-2.885-0.557c-0.262-0.149-0.479-0.282-0.419-0.657c0.019-0.12-0.16-0.356-0.285-0.387
			c-0.112-0.027-0.353,0.125-0.403,0.252c-0.335,0.835-0.946,1.104-1.822,1.133c-1.781,0.061-3.121-0.671-4.258-1.988
			c-0.349-0.405-0.363-0.715-0.283-1.192c0.221-1.324,0.333-2.666,0.547-3.991c0.122-0.758,0.296-1.52,0.558-2.239
			c0.292-0.806,0.823-1.452,1.649-1.817c1.139-0.503,2.13-1.205,2.874-2.324c0.596,1.055,1.627,1.271,2.654,1.519
			c2.697,0.648,3.961,2.521,4.322,5.137c0.071,0.515,0.118,1.04,0.101,1.558c-0.055,1.594,0.113,3.153,0.607,4.673
			C29.701,25.057,29.686,25.07,29.669,25.083z M18.088,18.691c-0.05,0.012-0.101,0.024-0.151,0.036
			c0.217,0.673,0.269,1.486,0.688,1.989c0.689,0.824,1.61,1.457,2.454,2.146c0.185,0.15,0.451,0.25,0.69,0.275
			c0.647,0.07,1.301,0.113,1.951,0.116c0.363,0.001,0.743-0.05,1.088-0.162c1.37-0.447,2.079-1.515,2.545-2.796
			c0.806-2.211-0.57-4.349-2.771-4.732c-1.673-0.292-3.269-0.063-4.82,0.624C18.661,16.673,18.063,17.461,18.088,18.691z"/>
		<path fill="#FDEDD2" d="M14.799,42.085c0.044,0.479,0.068,0.959,0.137,1.435c0.058,0.396,0.119,0.805,0.264,1.174
			c0.175,0.447,0.477,0.863,1.014,0.865c0.589,0.004,1.104-0.254,1.335-0.826c0.161-0.398,0.266-0.838,0.294-1.267
			c0.099-1.485-0.016-2.957-0.376-4.409c-0.355-1.43-0.262-2.893-0.09-4.322c0.2-1.676,0.598-3.329,0.91-4.991
			c0.077-0.002,0.154-0.005,0.23-0.007c0.061,0.252,0.146,0.501,0.177,0.757c0.185,1.551-0.086,2.999-0.924,4.345
			c-0.187,0.3-0.273,0.736-0.234,1.09c0.226,2.086,0.596,4.162,0.732,6.252c0.117,1.805,0.079,3.633-0.059,5.438
			c-0.186,2.444-0.554,4.874-0.795,7.315c-0.062,0.627,0.027,1.277,0.109,1.909c0.086,0.667,0.26,0.767,1.006,0.726
			c-0.012,2.213-0.7,4.258-1.538,6.261c-0.414,0.992-0.881,1.961-1.327,2.94c-0.266,0.582-0.572,1.123-1.321,1.153
			c-0.579,0.024-0.796-0.188-0.697-0.754c0.265-1.522,0.534-3.043,1.158-4.479c0.496-1.142,0.898-2.307,0.838-3.599
			c-0.043-0.932,0.017-1.872,0.101-2.804c0.123-1.374-0.045-2.717-0.291-4.061c-0.285-1.553-0.574-3.104-0.832-4.662
			c-0.158-0.957-0.354-1.924-0.359-2.887c-0.005-0.873,0.225-1.746,0.351-2.619C14.674,42.068,14.736,42.077,14.799,42.085z"/>
		<path fill="#FEEED3" d="M33.562,38.386c0.518,0.679,0.955,1.341,1.955,1.265c0.155,0.998,0.363,2,0.461,3.013
			c0.303,3.153,0.021,6.274-0.504,9.39c-0.127,0.746-0.002,1.532-0.015,2.301c-0.017,1.024-0.019,2.053-0.093,3.074
			c-0.143,1.939,0.224,3.778,0.974,5.557c0.657,1.559,0.927,3.188,0.854,4.875c-0.008,0.195-0.063,0.4-0.15,0.576
			c-0.236,0.479-0.602,0.518-0.941,0.104c-0.115-0.141-0.201-0.309-0.276-0.475c-0.815-1.806-1.244-3.719-1.601-5.655
			c-0.076-0.423-0.22-0.847-0.406-1.234c-0.566-1.179-0.65-2.42-0.536-3.69c0.06-0.668,0.185-1.332,0.237-2
			c0.181-2.324-0.123-4.627-0.312-6.938c-0.107-1.316-0.135-2.652-0.044-3.968c0.14-1.992,0.524-3.968,0.353-5.979
			C33.514,38.555,33.535,38.509,33.562,38.386z"/>
		<path fill="#FDEDD1" d="M6.532,46.854c-0.025-0.093-0.083-0.19-0.07-0.277c0.166-1.129,0.294-2.262,0.953-3.258
			c1.24-1.875,2.089-3.914,2.385-6.154c0.068-0.51,0.048-1.045-0.021-1.557c-0.254-1.898,0.05-3.708,0.721-5.486
			c0.29-0.768,0.475-1.575,0.711-2.362c0.046-0.153,0.109-0.301,0.18-0.495c0.057,0.081,0.086,0.103,0.083,0.121
			c-0.381,2.504,0.35,4.906,0.689,7.341c0.187,1.338,0.182,2.643-0.24,3.939c-0.228,0.699-0.289,1.417,0.052,2.147
			c-0.765,0.287-0.693,0.965-0.729,1.541c-0.11,1.765-0.187,3.532,0.43,5.244c0.069,0.192,0.065,0.491-0.04,0.653
			c-0.75,1.155-1.118,2.437-1.324,3.776c-0.115,0.748-0.257,1.494-0.344,2.244c-0.139,1.203-0.71,2.198-1.448,3.109
			c-0.127,0.157-0.493,0.303-0.622,0.23c-0.202-0.113-0.444-0.447-0.408-0.637c0.13-0.688,0.326-1.371,0.578-2.024
			c0.633-1.644,1.072-3.31,1.095-5.095c0.019-1.439,0.067-2.899,0.321-4.312c0.262-1.46,0.766-2.879,1.209-4.303
			c0.126-0.404,0.425-0.751,0.613-1.14c0.069-0.144,0.049-0.33,0.069-0.496c-0.173,0.033-0.441,0.008-0.503,0.109
			c-0.32,0.523-0.691,1.051-0.852,1.629c-0.422,1.523-0.999,2.971-1.919,4.25c-0.378,0.525-0.928,0.928-1.4,1.385
			C6.645,46.938,6.588,46.896,6.532,46.854z"/>
		<path fill="#FDEED2" d="M7.818,30.851c0.381-1.2,0.665-2.437,1.163-3.581c0.924-2.124,1.893-4.237,3.284-6.116
			c0.953-1.286,1.218-2.804,1.549-4.32c0.521-2.387,0.855-4.859,2.322-6.919c1.062-1.491,2.189-2.945,3.855-3.838
			c0.219-0.117,0.47-0.221,0.711-0.237c0.229-0.015,0.632,0.047,0.664,0.16c0.074,0.258,0.005,0.578-0.07,0.855
			c-0.194,0.715-0.513,1.408-0.615,2.133c-0.123,0.876-0.66,1.4-1.262,1.919c-0.61,0.527-1.22,1.055-1.836,1.574
			c-0.693,0.583-1.095,1.352-1.402,2.18c-0.726,1.949-1.479,3.889-2.16,5.854c-0.385,1.107-0.647,2.257-0.98,3.383
			c-0.04,0.136-0.148,0.299-0.27,0.356c-1.007,0.475-1.541,1.318-1.854,2.333c-0.343,1.106-0.63,2.231-1.011,3.324
			c-0.179,0.513-0.472,1.009-0.809,1.437c-0.172,0.219-0.581,0.403-0.836,0.354C8.086,31.667,7.992,31.208,7.818,30.851z"/>
		<path fill="#FDEED2" d="M41.909,21.64c-0.419-0.205-0.777-0.323-1.066-0.536c-0.459-0.337-0.92-0.695-1.29-1.123
			c-0.479-0.555-0.805-1.246-1.308-1.773c-1.454-1.524-2.207-3.431-3.073-5.29c-1.117-2.4-3.041-3.847-5.611-4.412
			c-1.129-0.248-2.283-0.38-3.422-0.593c-0.824-0.154-1.374-0.607-1.614-1.465c-0.118-0.422-0.39-0.826-0.673-1.172
			c-0.397-0.484-0.964-0.387-1.501-0.272c-0.125,0.027-0.241,0.095-0.362,0.145c-0.046-0.034-0.091-0.067-0.137-0.1
			c0.127-0.215,0.204-0.5,0.39-0.633c0.864-0.623,1.858-0.624,2.792-0.286c0.694,0.251,1.295,0.756,1.954,1.12
			c0.849,0.468,1.673,1.028,2.58,1.334c2.679,0.906,5.104,2.187,7.199,4.12c1.188,1.095,1.682,2.445,1.853,3.965
			c0.203,1.817,0.961,3.42,1.87,4.959c0.182,0.308,0.574,0.499,0.891,0.715C41.828,20.651,41.947,20.862,41.909,21.64z"/>
		<path fill="#FDEED2" d="M21.625,34.698c0.394,2.759,0.844,5.511,1.148,8.28c0.107,0.979-0.099,2.002-0.238,2.996
			c-0.229,1.627-0.415,3.271-0.809,4.86c-0.812,3.274-1.126,6.59-1.142,9.948c-0.006,1.146-0.037,2.287-0.473,3.375
			c-0.303,0.759-0.605,0.982-1.395,0.966c-0.585-0.013-0.888-0.235-0.823-0.828c0.095-0.874,0.242-1.761,0.521-2.59
			c0.399-1.188,0.714-2.382,0.75-3.636c0.045-1.562,0.14-3.129,0.067-4.688c-0.069-1.503-0.151-2.996,0.246-4.459
			c0.166-0.61,0.353-1.258,0.705-1.768c1.639-2.369,1.756-4.936,1.182-7.64c-0.3-1.412-0.231-2.847-0.047-4.271
			c0.024-0.188,0.101-0.37,0.152-0.554C21.522,34.692,21.574,34.695,21.625,34.698z"/>
		<path fill="#FDEDD2" d="M5.186,25.666c0.163-0.342,0.231-0.57,0.363-0.75c0.77-1.052,1.228-2.245,1.497-3.498
			c0.366-1.701,1.268-3.109,2.334-4.413c1.801-2.204,3.165-4.612,3.86-7.393c0.615-2.46,2.139-4.28,4.276-5.558
			c0.995-0.595,2.146-0.787,3.313-0.512C21.072,3.6,21.29,3.767,21.4,3.822c-0.11,0.494-0.194,0.871-0.294,1.315
			c-1.857,0.041-2.957,1.489-4.17,2.758c-1.312,1.372-2.149,3.015-2.852,4.764c-0.254,0.633-0.86,1.12-1.282,1.691
			c-0.437,0.591-1.035,1.149-1.226,1.818c-0.413,1.449-1.311,2.551-2.18,3.703c-0.289,0.382-0.497,0.831-0.703,1.268
			c-0.55,1.167-1.036,2.366-1.641,3.503c-0.203,0.381-0.665,0.645-1.051,0.898C5.827,25.656,5.547,25.617,5.186,25.666z"/>
		<path fill="#FEEED3" d="M32.777,61.447c-0.627-0.203-0.914-0.663-1.045-1.176c-0.193-0.764-0.291-1.551-0.43-2.328
			c-0.093-0.525-0.185-1.053-0.271-1.58c-0.015-0.079-0.015-0.168,0.004-0.245c0.366-1.521,0.263-3.048-0.322-4.457
			c-0.989-2.388-0.743-4.786-0.258-7.185c0.39-1.92,0.688-3.832,0.547-5.795c-0.021-0.268,0.038-0.412,0.304-0.587
			c0.272-0.18,0.521-0.556,0.57-0.878c0.08-0.521,0.039-1.076-0.039-1.604c-0.186-1.245-0.184-2.477,0.105-3.704
			c0.012-0.044,0.051-0.083,0.162-0.262c0.19,0.778,0.449,1.433,0.496,2.102c0.149,2.095,0.272,4.194,0.303,6.295
			c0.015,1.119-0.155,2.244-0.295,3.36c-0.266,2.131-0.213,4.242,0.043,6.379c0.279,2.331,0.394,4.673,0.057,7.039
			c-0.195,1.378,0.032,2.816,0.068,4.227C32.781,61.161,32.777,61.271,32.777,61.447z"/>
		<path fill="#FDEED2" d="M39.359,23.162c-0.168,0.297-0.283,0.651-0.521,0.875c-0.211,0.2-0.482,0.131-0.617-0.224
			c-0.199-0.517-0.449-1.013-0.672-1.52c-0.314-0.716-0.779-1.285-1.346-1.847c-0.829-0.823-1.536-1.746-1.781-3.01
			c-0.179-0.921-0.648-1.859-1.222-2.614c-0.796-1.049-1.699-2.083-2.755-2.854c-1.483-1.085-3.105-1.997-5.078-1.989
			c-0.944,0.004-1.681-0.544-2.208-1.32c-0.349-0.514-0.716-1.029-0.957-1.595c-0.137-0.32-0.125-0.775-0.006-1.106
			c0.07-0.197,0.469-0.333,0.74-0.381c0.163-0.029,0.428,0.116,0.536,0.264c0.215,0.294,0.402,0.628,0.513,0.973
			c0.27,0.847,0.827,1.416,1.664,1.605c1.177,0.267,2.385,0.394,3.565,0.642c2.629,0.552,4.481,2.037,5.591,4.53
			c0.887,1.994,1.943,3.911,2.918,5.866c0.49,0.988,0.976,1.98,1.438,2.982c0.087,0.188,0.061,0.43,0.086,0.646
			C39.285,23.112,39.322,23.137,39.359,23.162z"/>
		<path fill="#FEEED3" d="M23.504,30.045c1.546-0.588,1.749-2.012,2.008-3.462c0.457,0,0.938-0.016,1.418,0.014
			c0.094,0.006,0.235,0.182,0.252,0.294c0.125,0.84,0.086,1.651-0.242,2.47c-0.578,1.448-1.162,2.907-1.309,4.481
			c-0.07,0.769-0.052,1.545-0.093,2.317c-0.013,0.228-0.089,0.452-0.14,0.679c-0.211,0.928-0.544,1.848-0.609,2.786
			c-0.129,1.828-0.098,3.667-0.154,5.5c-0.016,0.485-0.071,0.978-0.185,1.446c-0.062,0.255-0.237,0.533-0.446,0.689
			c-0.383,0.287-0.784,0.064-0.787-0.42c-0.003-0.4,0.039-0.806,0.098-1.203c0.355-2.388-0.063-4.721-0.442-7.062
			c-0.232-1.438-0.449-2.888-0.529-4.34c-0.065-1.185,0.343-2.313,0.843-3.391C23.302,30.591,23.392,30.327,23.504,30.045z"/>
		<path fill="#FDEED3" d="M40.531,37.07c0.449-0.195,0.801-0.348,1.263-0.547c0.052,0.646,0.136,1.302,0.147,1.959
			c0.021,1.023-0.008,2.049-0.01,3.072c-0.002,0.719,0.234,1.256,0.992,1.514c0.202,0.07,0.422,0.422,0.436,0.656
			c0.092,1.49,0.244,2.99,0.154,4.475c-0.125,2.068-0.016,4.083,0.502,6.096c0.234,0.916,0.303,1.893,0.313,2.842
			c0.006,0.508-0.218,1.045-0.438,1.52c-0.097,0.205-0.441,0.359-0.693,0.396c-0.107,0.016-0.344-0.312-0.391-0.515
			c-0.213-0.896-0.351-1.81-0.565-2.705c-0.265-1.088-0.491-2.198-0.896-3.235c-0.4-1.021-0.652-2.05-0.633-3.128
			c0.039-2.186,0.163-4.37,0.203-6.555C40.952,40.936,41.061,38.945,40.531,37.07z"/>
		<path fill="#FDEED3" d="M39.129,20.407c0.354,0.33,0.686,0.691,1.07,0.981c0.367,0.277,0.796,0.47,1.186,0.719
			c0.139,0.089,0.29,0.214,0.352,0.358c0.359,0.847,0.199,1.723,0.076,2.586c-0.166,1.155-0.143,2.28,0.36,3.358
			c0.042,0.09,0.097,0.193,0.087,0.285c-0.105,1.095,0.432,2.013,0.781,2.99c0.412,1.152,0.844,2.313,1.084,3.507
			c0.156,0.779,0.023,1.625-0.045,2.438c-0.074,0.882-0.243,1.755-0.336,2.637c-0.057,0.533-0.055,1.074-0.061,1.612
			c-0.006,0.323-0.078,0.58-0.459,0.587c-0.363,0.006-0.582-0.216-0.598-0.553c-0.043-0.975-0.119-1.955-0.05-2.923
			c0.067-0.958-0.042-1.875-0.269-2.793c-0.164-0.665-0.336-1.33-0.463-2.002c-0.115-0.621-0.393-1.135-0.832-1.578
			c-0.285-0.286-0.558-0.583-0.822-0.887c-0.742-0.848-0.885-1.904-0.983-2.962c-0.119-1.27-0.206-2.544-0.291-3.817
			c-0.007-0.099,0.091-0.258,0.183-0.302c0.625-0.302,0.766-0.857,0.787-1.467c0.027-0.814-0.238-1.553-0.639-2.25
			c-0.081-0.141-0.157-0.284-0.234-0.426C39.052,20.472,39.091,20.44,39.129,20.407z"/>
		<path fill="#FDEDD1" d="M21.677,7.449c0.28,0.453,0.538,0.838,0.766,1.242c0.684,1.209,1.738,1.873,3.096,1.965
			c2.555,0.175,4.443,1.523,6.154,3.276c1.187,1.214,2.013,2.607,2.35,4.266c0.309,1.515,0.499,3.056,0.859,4.557
			c0.266,1.099,0.658,2.179,1.109,3.218c0.523,1.209,0.594,2.429,0.385,3.694c-0.074,0.448-0.399,0.576-0.809,0.607
			c-0.389,0.03-0.725-0.062-0.875-0.439c-0.498-1.243-1.07-2.474-0.773-3.879c0.188-0.886,0.029-1.733-0.306-2.565
			c-0.669-1.666-1.35-3.329-1.964-5.016c-0.298-0.817-0.451-1.686-0.677-2.53c-0.558-2.075-1.851-3.374-3.985-3.807
			c-1.066-0.216-2.139-0.432-3.188-0.723c-0.993-0.275-1.608-1.005-2.137-1.877C21.269,8.751,21.373,8.166,21.677,7.449z"/>
		<path fill="#FDEED2" d="M9.198,32.158c0,1.546-0.003,2.955,0,4.363c0.004,1.555-0.543,2.967-1.149,4.355
			c-0.268,0.614-0.565,1.232-0.956,1.771c-0.78,1.08-1.038,2.314-1.238,3.58c-0.021,0.133-0.025,0.27-0.02,0.403
			c0.014,0.404,0.176,0.777,0.573,0.854c0.267,0.051,0.629-0.057,0.858-0.219c0.474-0.338,0.887-0.76,1.325-1.146
			c0.045,0.021,0.091,0.042,0.137,0.062c-0.123,0.275-0.216,0.57-0.375,0.825c-0.554,0.894-1.1,1.794-1.707,2.651
			c-0.432,0.609-0.957,1.154-1.444,1.726c-0.162,0.19-0.348,0.362-0.5,0.562c-0.525,0.688-1.331,0.98-2.092,0.748
			c-0.464-0.143-0.572-0.372-0.246-0.709c0.75-0.774,0.917-1.703,0.934-2.732c0.041-2.663,0.874-5.061,2.386-7.268
			c0.514-0.75,0.789-1.698,1.024-2.596c0.496-1.881,0.884-3.792,1.339-5.684c0.096-0.402,0.249-0.803,0.455-1.159
			C8.6,32.38,8.886,32.324,9.198,32.158z"/>
		<path fill="#FEEED3" d="M16.122,24.109c0.006,0.001,0.053-0.007,0.069,0.012c0.7,0.776,1.53,1.389,2.402,1.956
			c0.092,0.059,0.075,0.371,0.028,0.544c-0.481,1.776-1.011,3.539-1.463,5.322c-0.539,2.123-0.629,4.296-0.467,6.468
			c0.098,1.301,0.387,2.587,0.508,3.888c0.058,0.625-0.049,1.271-0.133,1.9c-0.053,0.398-0.316,0.674-0.748,0.691
			c-0.421,0.017-0.539-0.334-0.594-0.636c-0.114-0.626-0.172-1.263-0.24-1.896c-0.115-1.063-0.393-2.146-0.291-3.188
			c0.165-1.688-0.363-3.263-0.517-4.893c-0.087-0.932-0.037-1.847,0.258-2.741c0.409-1.242,0.621-2.499,0.431-3.817
			C15.181,26.439,15.395,25.218,16.122,24.109z"/>
		<path fill="#FEEED3" d="M25.788,37.783c0.45,1.117,1.017,2.206,1.315,3.363c0.224,0.854,0.244,1.822,0.104,2.701
			c-0.353,2.2-0.862,4.375-1.276,6.566c-0.371,1.958-0.627,3.923,0.059,5.873c0.105,0.301,0.193,0.615,0.354,0.888
			c0.483,0.83,0.491,1.732,0.458,2.646c-0.017,0.457-0.308,0.738-0.761,0.744c-0.15,0.002-0.303-0.014-0.454-0.019
			c-1.258-0.039-1.485-0.155-1.646-1.438c-0.136-1.075-0.138-2.185-0.054-3.269c0.182-2.33,0.454-4.651,0.335-6.996
			c-0.021-0.434,0.031-0.797,0.343-1.194c0.644-0.822,0.727-1.866,0.76-2.879c0.057-1.731,0.056-3.465,0.118-5.196
			c0.021-0.61,0.156-1.216,0.24-1.823C25.718,37.762,25.753,37.771,25.788,37.783z"/>
		<path fill="#FDEED3" d="M27.855,41.412c0.953-0.439,1.174-0.979,0.981-1.971c-0.286-1.488-0.329-2.976,0.334-4.399
			c0.024-0.054,0.063-0.103,0.119-0.191c0.144,0.505,0.239,0.974,0.403,1.417c0.883,2.361,0.851,4.73,0.312,7.173
			c-0.357,1.631-0.43,3.326-0.615,4.992c-0.138,1.219,0.371,2.311,0.734,3.42c0.376,1.143,0.449,2.307,0.396,3.489
			c-0.008,0.166-0.043,0.337-0.096,0.494c-0.132,0.401-0.462,0.508-0.781,0.229c-0.185-0.162-0.399-0.375-0.442-0.596
			c-0.304-1.568-1.021-2.979-1.625-4.435c-0.608-1.464-0.575-2.974-0.136-4.494C27.93,44.873,27.941,43.156,27.855,41.412z"/>
		<path fill="#FEEED3" d="M22.985,47.891c0.462,0.028,0.529,0.27,0.561,0.617c0.229,2.583-0.164,5.133-0.352,7.695
			c-0.096,1.309-0.068,2.596,0.319,3.889c0.201,0.669,0.062,1.454,0.014,2.182c-0.073,1.121-0.21,2.236-0.302,3.355
			c-0.053,0.637-0.044,1.278-0.107,1.913c-0.044,0.438-0.143,0.892-0.7,0.976c-0.428,0.065-1.06-0.285-1.201-0.752
			c-0.164-0.543-0.225-1.115-0.328-1.676c-0.207-1.115,0.006-2.197,0.219-3.288c0.09-0.458,0.092-0.936,0.096-1.405
			c0.035-3.621,0.294-7.215,1.241-10.733C22.687,49.762,22.806,48.83,22.985,47.891z"/>
		<path fill="#FDEED2" d="M12.048,48.919c0.104,0.349,0.194,0.593,0.249,0.845c0.366,1.705,0.73,3.41,1.08,5.118
			c0.046,0.226,0.053,0.478,0.005,0.7c-0.646,3-1.258,6.008-1.986,8.986c-0.235,0.962-0.768,1.854-1.196,2.763
			c-0.191,0.405-0.54,0.612-1,0.415c-0.474-0.205-0.41-0.635-0.316-1.003c0.334-1.318,0.628-2.655,1.08-3.935
			c0.592-1.676,0.844-3.384,0.827-5.145c-0.013-1.375-0.145-2.759-0.036-4.125c0.115-1.448,0.304-2.914,1-4.24
			C11.811,49.193,11.904,49.104,12.048,48.919z"/>
		<path fill="#FDEED2" d="M38.591,8.053c-0.64-0.185-1.157-0.405-1.696-0.478c-1.27-0.17-2.504-0.666-3.821-0.401
			c-0.171,0.034-0.374,0-0.54-0.063c-1.146-0.434-2.305-0.842-3.42-1.345c-0.682-0.307-1.319-0.731-1.93-1.168
			c-1.061-0.76-2.154-1.39-3.518-1.277c-0.381,0.031-0.755,0.146-1.135,0.201c-0.169,0.024-0.376,0.051-0.513-0.022
			c-0.587-0.315-0.614-0.604-0.028-0.909C22.594,2.277,23.24,2,23.9,1.847c0.814-0.188,1.688-0.405,2.491-0.293
			c1.043,0.146,2.143,0.433,3.035,0.963c1.729,1.026,3.331,2.264,4.984,3.417c0.904,0.631,1.913,0.956,3.011,1.033
			c0.399,0.028,0.8,0.087,1.192,0.163c0.306,0.059,0.582,0.251,0.482,0.581C39.048,7.875,38.736,7.962,38.591,8.053z"/>
		<path fill="#FDEDD2" d="M22.538,11.486c0.496,0.179,0.98,0.396,1.487,0.529c1.198,0.316,2.407,0.591,3.612,0.884
			c1.459,0.355,2.334,1.423,2.617,2.745c0.605,2.82,1.876,5.382,2.83,8.065c0.354,0.991,0.459,1.994,0.077,2.998
			c-0.229,0.604-0.601,0.719-1.146,0.35c-0.968-0.656-1.498-1.652-1.812-2.717c-0.259-0.874-0.324-1.811-0.421-2.725
			c-0.127-1.2-0.104-2.423-0.317-3.604c-0.516-2.839-2.248-4.509-5.108-5.06c-0.772-0.148-1.381-0.504-1.766-1.203
			c-0.032-0.058-0.061-0.12-0.078-0.183C22.508,11.54,22.532,11.505,22.538,11.486z"/>
		<path fill="#FDEED3" d="M8.354,48.22c0.164,1.81,0.224,3.565-0.418,5.224c-0.585,1.515-1.321,2.971-1.928,4.477
			c-0.375,0.93-0.609,1.913-0.951,2.855c-0.394,1.084-0.709,2.223-1.604,3.043c-0.196,0.181-0.41,0.363-0.648,0.47
			c-0.161,0.071-0.417,0.077-0.56-0.009c-0.098-0.057-0.139-0.338-0.096-0.488c0.392-1.369,0.712-2.77,1.243-4.085
			c0.58-1.438,0.894-2.911,1.12-4.427c0.124-0.827,0.329-1.646,0.555-2.452c0.082-0.29,0.292-0.572,0.512-0.79
			c0.842-0.837,1.546-1.76,2.04-2.85C7.78,48.828,8.104,48.541,8.354,48.22z"/>
		<path fill="#FDEDD1" d="M13.645,14.602c-0.191,0.88-0.438,1.685-0.532,2.507c-0.202,1.768-1.078,3.202-1.991,4.675
			c-1.56,2.515-2.945,5.135-3.639,8.052c-0.161,0.676-0.266,1.353,0.002,2.035c0.039,0.099-0.009,0.254-0.061,0.363
			c-0.404,0.846-0.799,1.697-1.238,2.525c-0.201,0.379-0.472,0.73-0.76,1.049c-0.108,0.119-0.357,0.109-0.542,0.158
			C4.872,35.79,4.811,35.6,4.857,35.442c0.166-0.563,0.443-1.104,0.542-1.676c0.185-1.071,0.334-2.156,0.388-3.241
			c0.076-1.539,0.632-2.877,1.493-4.113c0.643-0.923,1.089-1.926,1.34-3.019c0.367-1.596,0.999-3.056,2.131-4.273
			c0.668-0.718,1.033-1.599,1.322-2.524c0.235-0.751,0.661-1.391,1.295-1.874C13.426,14.677,13.506,14.661,13.645,14.602z"/>
		<path fill="#FDEDD1" d="M44.348,42.516c0.482,0.76,0.816,1.564,0.926,2.489c0.375,3.204,0.363,6.421,0.316,9.636
			c-0.025,1.719,0.439,3.327,0.879,4.947c0.293,1.085,0.719,2.137,0.997,3.225c0.146,0.576,0.147,1.199,0.132,1.799
			c-0.01,0.336-0.117,0.718-0.56,0.806c-0.456,0.091-0.72-0.192-0.866-0.539c-0.4-0.94-0.818-1.881-1.107-2.858
			c-0.256-0.865-0.356-1.777-0.506-2.672c-0.033-0.191-0.035-0.427,0.049-0.592c0.531-1.055,0.451-2.168,0.291-3.27
			c-0.146-0.995-0.418-1.971-0.612-2.961c-0.304-1.536-0.177-3.082-0.08-4.629c0.099-1.565,0.112-3.125-0.29-4.666
			c-0.055-0.211,0.116-0.48,0.184-0.723C44.182,42.511,44.266,42.514,44.348,42.516z"/>
		<path fill="#FDEED3" d="M26.758,50.461c0.585,1.652,1.077,3.348,1.782,4.947c0.774,1.76,0.673,3.576,0.677,5.4
			c0.004,1.702,0.278,3.342,0.967,4.911c0.159,0.362,0.233,0.771,0.293,1.167c0.08,0.526-0.236,0.857-0.771,0.865
			c-0.806,0.012-1.164-0.273-1.345-1.057c-0.377-1.635-0.764-3.271-1.135-4.907c-0.109-0.481-0.027-0.935,0.11-1.422
			c0.306-1.078,0.22-2.171-0.3-3.188c-1.11-2.172-0.889-4.423-0.467-6.689C26.634,50.479,26.695,50.47,26.758,50.461z"/>
		<path fill="#FDEED2" d="M37.568,48.095c0.24,1.708,0.543,3.411,0.701,5.126c0.113,1.237,0.101,2.494,0.032,3.736
			c-0.108,2.008,0.067,3.955,0.777,5.854c0.226,0.605,0.317,1.271,0.39,1.92c0.024,0.222-0.14,0.562-0.324,0.688
			c-0.276,0.188-0.586,0.077-0.854-0.188c-1.374-1.364-1.756-3.205-2.062-4.949c-0.299-1.713-0.086-3.518-0.076-5.282
			c0.002-0.114,0.168-0.282,0.295-0.33c0.482-0.185,0.66-0.526,0.654-1.021c-0.016-0.994-0.06-1.991-0.006-2.981
			c0.047-0.872,0.211-1.737,0.321-2.604C37.469,48.074,37.52,48.084,37.568,48.095z"/>
		<path fill="#FDEED3" d="M12.951,24.946c0.456,1.863,0.533,1.94,1.648,1.691c0.294,1.662,0.231,3.288-0.329,4.908
			c-0.457,1.319-0.336,2.699-0.057,4.042c0.248,1.194,0.467,2.383,0.23,3.595c-0.089,0.452-0.271,0.902-0.497,1.305
			c-0.116,0.209-0.415,0.419-0.644,0.433c-0.378,0.022-0.757-0.183-0.813-0.608c-0.057-0.424-0.11-0.897,0.018-1.289
			c0.637-1.948,0.388-3.875,0.051-5.833c-0.259-1.502-0.405-3.027-0.539-4.547c-0.041-0.472,0.125-0.96,0.19-1.442
			c0.068-0.494,0.196-0.992,0.174-1.483C12.365,25.274,12.512,25.061,12.951,24.946z"/>
		<path fill="#FDEDD2" d="M38.814,35.708c0.496,0.474,1.099,0.614,1.062,1.454c-0.033,0.785,0.328,1.579,0.352,2.374
			c0.045,1.594,0.006,3.19-0.049,4.786c-0.084,2.383-0.328,4.761,0.086,7.144c0.137,0.783,0.07,1.604,0.069,2.408
			c-0.001,0.21-0.06,0.452-0.176,0.622c-0.13,0.188-0.337,0.373-0.546,0.428c-0.092,0.024-0.355-0.258-0.393-0.433
			c-0.174-0.819-0.302-1.649-0.434-2.478c-0.111-0.695-0.23-1.391-0.301-2.09c-0.098-0.982-0.146-1.968-0.223-2.951
			c-0.021-0.283-0.017-0.578-0.102-0.841c-0.293-0.915,0.158-1.743,0.27-2.608c0.198-1.545,0.51-3.082,0.616-4.631
			C39.119,37.882,38.91,36.855,38.814,35.708z"/>
		<path fill="#FDEED2" d="M36.757,47.832c0-1.206,0.046-2.416-0.01-3.622c-0.113-2.424-0.459-4.828-1.202-7.134
			c-0.373-1.157-0.449-2.235-0.229-3.403c0.135-0.703,0.098-1.438,0.133-2.159c0.009-0.18,0.001-0.361,0.001-0.549
			c0.315-0.071,0.593-0.134,0.935-0.211c0.088,0.384,0.133,0.785,0.271,1.15c0.326,0.859,0.648,1.725,1.062,2.544
			c0.433,0.859,0.458,1.775,0.574,2.69c0.226,1.758,0.091,3.485-0.295,5.207c-0.374,1.672-0.714,3.353-1.074,5.027
			C36.889,47.538,36.809,47.693,36.757,47.832z"/>
		<path fill="#FDEED2" d="M35.042,20.16c1.278,1.072,2.12,2.388,2.619,3.928c0.024,0.08,0.043,0.179,0.101,0.229
			c0.829,0.716,0.616,1.723,0.723,2.631c0.104,0.9,0.135,1.809,0.207,2.713c0.11,1.354,0.797,2.421,1.764,3.302
			c0.885,0.808,0.918,1.782,0.693,2.824c-0.119,0.551-0.317,0.62-0.776,0.304c-1.448-0.997-2.615-2.204-3.015-4.005
			c-0.191-0.869-0.348-1.7-0.239-2.625c0.168-1.438-0.046-2.824-0.78-4.183c-0.551-1.02-0.681-2.269-0.982-3.42
			c-0.109-0.422-0.18-0.855-0.262-1.284C35.066,20.441,35.059,20.303,35.042,20.16z"/>
		<path fill="#FEEED3" d="M41.215,53.822c0.141,0.765,0.273,1.531,0.424,2.293c0.176,0.887,0.327,1.781,0.562,2.652
			c0.136,0.5,0.393,0.975,1.061,0.986c0.094,0.001,0.271,0.254,0.266,0.385c-0.068,1.707,0.406,3.321,0.787,4.955
			c0.121,0.518,0.127,1.064,0.17,1.6c0.094,1.166-0.924,1.307-1.604,0.97c-0.717-0.356-1.229-0.976-1.33-1.84
			c-0.261-2.2-0.602-4.394-0.769-6.601c-0.136-1.785-0.239-3.594,0.255-5.358C41.096,53.852,41.154,53.837,41.215,53.822z"/>
		<path fill="#FDEED3" d="M27.859,26.583c0.623-0.251,1.16-0.468,1.733-0.699c-0.088,0.379-0.237,0.77-0.261,1.168
			c-0.092,1.558-0.195,3.119-0.193,4.678c0,1.169-0.209,2.266-0.662,3.332c-0.603,1.417-0.562,2.881-0.316,4.363
			c0.044,0.263,0.115,0.537,0.074,0.789c-0.025,0.159-0.217,0.351-0.375,0.406c-0.088,0.03-0.325-0.163-0.389-0.304
			c-0.938-2.113-1.676-4.282-1.156-6.634c0.281-1.272,0.658-2.532,1.104-3.757c0.365-1.002,0.579-1.991,0.443-3.05
			C27.848,26.761,27.859,26.645,27.859,26.583z"/>
		<path fill="#FDEDD1" d="M14.192,59.912c-0.044-0.589-0.147-1.182-0.121-1.768c0.136-2.905-0.287-5.726-1.144-8.5
			c-0.414-1.343-0.833-2.705-1.021-4.088c-0.162-1.203-0.023-2.449,0.03-3.675c0.022-0.512,0.306-0.604,0.777-0.458
			c0.397,0.124,0.83,0.135,1.343,0.209c-0.102,0.571-0.242,1.251-0.34,1.938c-0.174,1.225-0.145,2.437,0.129,3.658
			c0.32,1.424,0.586,2.863,0.803,4.309c0.21,1.393,0.411,2.796,0.458,4.201c0.036,1.066-0.153,2.143-0.288,3.209
			c-0.044,0.345-0.231,0.671-0.353,1.006C14.375,59.939,14.283,59.925,14.192,59.912z"/>
		<path fill="#FDEDD0" d="M39.041,13.147c0.829,0.536,1.656,1.071,2.479,1.604c-0.428,0.559-0.09,2.347,0.644,2.852
			c0.344,0.237,0.666,0.514,0.966,0.806c1.158,1.129,1.324,2.527,0.977,4.009c-0.242,1.026-0.645,2.016-0.877,3.043
			c-0.145,0.631-0.092,1.304-0.155,1.956c-0.019,0.193-0.138,0.376-0.242,0.646c-0.427-0.537-0.479-1.058-0.463-1.567
			c0.03-0.855,0.168-1.707,0.179-2.561c0.008-0.542-0.136-1.085-0.206-1.629c-0.014-0.109-0.04-0.239,0.003-0.329
			c0.391-0.803,0.248-1.688-0.519-2.068c-0.81-0.4-1.142-1.107-1.507-1.812c-0.782-1.515-1.055-3.176-1.322-4.836
			C38.991,13.232,39.02,13.199,39.041,13.147z"/>
		<path fill="#FEEED3" d="M21.082,26.412c0.058,1.471,0.109,2.929,1.809,3.639c-0.566,1.072-1.13,2.113-1.667,3.168
			c-0.258,0.508-0.452,1.047-0.697,1.562c-0.208,0.437-0.419,0.878-0.684,1.281c-0.253,0.384-0.7,0.36-0.998-0.002
			c-0.395-0.481-0.293-1.004-0.135-1.534c0.201-0.673,0.504-1.338,0.57-2.025c0.085-0.874,0.06-1.779-0.069-2.649
			c-0.161-1.08-0.198-2.133,0.054-3.197c0.077-0.321,0.208-0.451,0.56-0.381C20.217,26.353,20.622,26.365,21.082,26.412z"/>
		<path fill="#FDEDD1" d="M4.216,22.834c-0.043-0.875,0.224-1.491,0.586-2.06c0.478-0.75,0.979-1.486,1.508-2.201
			c0.79-1.068,1.287-2.254,1.683-3.521c0.347-1.11,0.877-2.169,1.392-3.219c0.377-0.769,1.034-1.253,1.884-1.464
			c0.369-0.092,0.724-0.241,1.253-0.42c-0.253,0.718-0.455,1.308-0.67,1.893c-0.708,1.924-1.979,3.495-3.194,5.103
			c-0.851,1.128-1.655,2.279-2.054,3.673c-0.083,0.289-0.463,0.498-0.719,0.729C5.368,21.817,4.843,22.277,4.216,22.834z"/>
		<path fill="#FDEED3" d="M9.228,57.758c-0.414,1.587-0.759,3.196-1.268,4.752c-0.315,0.963-0.836,1.868-1.357,2.743
			c-0.164,0.276-0.61,0.442-0.959,0.532c-0.364,0.094-0.769,0.031-1.155,0.042c-0.36,0.01-0.461-0.155-0.419-0.507
			c0.09-0.75,0.28-1.438,0.627-2.139c0.554-1.117,0.893-2.342,1.323-3.52c0.25-0.686,0.502-1.37,0.792-2.16
			c0.246,0.27,0.366,0.458,0.536,0.576c0.61,0.421,1.042,0.316,1.797-0.396C9.172,57.708,9.2,57.732,9.228,57.758z"/>
		<path fill="#FDEDD0" d="M21.219,10.016c0.575,1.341,0.392,2.107-0.848,3.011c-0.513,0.374-1.066,0.701-1.635,0.984
			c-1.135,0.565-1.756,1.539-2.025,2.693c-0.301,1.288-0.442,2.613-0.631,3.925c-0.223,1.55-0.452,3.097-1.13,4.53
			c-0.12,0.255-0.267,0.516-0.461,0.716c-0.348,0.357-0.636,0.264-0.742-0.222c-0.188-0.856-0.149-1.714,0.14-2.539
			c0.674-1.915,1.382-3.818,2.065-5.73c0.367-1.028,0.696-2.07,1.074-3.094c0.394-1.066,1.337-1.659,2.128-2.38
			C19.843,11.281,20.528,10.649,21.219,10.016z"/>
		<path fill="#FDEDD2" d="M29.811,56.913c0.18-0.028,0.405-0.063,0.662-0.103c0.154,0.996,0.266,1.98,0.475,2.943
			c0.117,0.544,0.437,1.042,0.598,1.58c0.146,0.49,0.266,1.003,0.29,1.511c0.101,2.104,0.562,4.124,1.315,6.08
			c0.183,0.468,0.459,0.896,0.666,1.355c0.074,0.169,0.07,0.374,0.104,0.562c-0.189,0.016-0.415,0.106-0.564,0.036
			c-0.826-0.384-1.635-0.817-1.987-1.739c-0.222-0.574-0.433-1.13-0.28-1.797c0.199-0.878-0.208-1.693-0.535-2.478
			c-0.474-1.128-0.628-2.294-0.652-3.495C29.869,59.908,29.841,58.445,29.811,56.913z"/>
		<path fill="#FDEED2" d="M18.162,36.478c0.477,0.254,0.884,0.641,1.281,0.631c0.365-0.008,0.722-0.441,1.131-0.722
			c-0.22,1.667,0.207,3.251,0.405,4.858c0.246,1.994-0.187,3.828-1.298,5.517c-0.344,0.522-0.552,1.133-0.868,1.799
			c0.072-1.039,0.133-1.977,0.204-2.914c0.113-1.463,0.045-2.904-0.228-4.358C18.492,39.695,18.363,38.072,18.162,36.478z"/>
		<path fill="#FDEDD1" d="M9.862,10.08c0.881-0.796,1.313-1.854,1.683-2.939c0.772-2.271,2.393-3.585,4.613-4.363
			c1.455-0.51,2.913-0.63,4.418-0.55c0.133,0.007,0.266,0.041,0.396,0.071c0.044,0.01,0.081,0.049,0.13,0.081
			c-0.061,0.385-0.239,0.501-0.647,0.466c-1.539-0.135-2.879,0.334-4.136,1.258c-1.652,1.214-2.728,2.798-3.47,4.668
			c-0.102,0.255-0.408,0.495-0.675,0.605c-0.744,0.307-1.518,0.541-2.28,0.803C9.883,10.146,9.873,10.113,9.862,10.08z"/>
		<path fill="#FDEED2" d="M25.283,61.299c0.053-0.031,0.066-0.045,0.08-0.047c1.07-0.123,1.043-0.117,1.273,0.915
			c0.375,1.667,0.781,3.327,1.19,4.985c0.055,0.223,0.144,0.527,0.31,0.613c0.637,0.329,0.818,0.954,1.086,1.521
			c0.1,0.209,0.086,0.471,0.125,0.709c-0.211,0.021-0.431,0.086-0.631,0.05c-0.732-0.13-1.535-0.094-2.086-0.734
			c-0.16-0.188-0.367-0.379-0.425-0.602c-0.274-1.085-0.586-2.17-0.731-3.275c-0.158-1.211-0.152-2.444-0.213-3.668
			C25.253,61.602,25.275,61.438,25.283,61.299z"/>
		<path fill="#FDEDD0" d="M13.369,59.129c0.429,1.45,0.523,1.545,1.521,1.422c-0.181,0.541-0.311,1.055-0.52,1.532
			c-0.741,1.692-1.174,3.465-1.368,5.293c-0.134,1.263-1.933,2.401-2.829,2.151c-0.16-0.045-0.406-0.187-0.412-0.293
			c-0.013-0.252,0.009-0.609,0.169-0.748c1.489-1.284,1.914-3.069,2.349-4.852c0.338-1.386,0.651-2.777,0.977-4.166
			C13.282,59.363,13.326,59.26,13.369,59.129z"/>
		<path fill="#FDEDD0" d="M32.154,27.886c0.306-0.03,0.726-0.071,1.205-0.118c0.113,0.401,0.195,0.885,0.386,1.322
			c0.229,0.529,0.556,1.016,0.829,1.527c0.084,0.156,0.188,0.334,0.184,0.5c-0.02,0.919,0.021,1.853-0.132,2.751
			c-0.187,1.094-0.177,2.128,0.235,3.165c0.24,0.601,0.455,1.221,0.219,1.996c-0.264-0.248-0.578-0.461-0.778-0.752
			c-0.698-1.014-1.188-2.114-1.053-3.386c0.162-1.492-0.396-2.839-0.792-4.221c-0.059-0.205-0.087-0.421-0.107-0.635
			C32.279,29.316,32.219,28.596,32.154,27.886z"/>
		<path fill="#FDECCF" d="M45.454,15.613c-0.675,0.429-0.983,0.426-1.444,0.045c-0.465-0.385-0.916-0.786-1.38-1.171
			c-0.142-0.117-0.293-0.256-0.462-0.299c-1.381-0.349-2.365-1.255-3.328-2.237c-1.467-1.496-2.953-2.977-4.75-4.173
			c0.162,0,0.33-0.027,0.486,0.004c1.279,0.253,2.555,0.53,3.836,0.772c0.62,0.118,0.939,0.562,1.21,1.046
			c0.219,0.393,0.373,0.826,0.532,1.249c0.611,1.616,1.736,2.762,3.229,3.584C44.053,14.802,44.712,15.189,45.454,15.613z"/>
		<path fill="#FDECCF" d="M37.8,65.959c0.537,0.044,1.022,0.158,1.488,0.104c0.502-0.061,0.864-0.545,0.813-1.061
			c-0.074-0.764-0.137-1.557-0.388-2.271c-0.7-1.987-0.966-4.006-0.731-6.098c0.037-0.333,0.02-0.672,0.029-1.008
			c0.002-0.031,0.025-0.061,0.039-0.091c0.328,0.021,0.655,0.042,1.042,0.067c0,0.9-0.067,1.793,0.013,2.67
			c0.211,2.289,0.533,4.565,0.711,6.855c0.066,0.857,0.332,1.766-0.14,2.615c-0.319,0.576-0.509,0.668-1.139,0.46
			c-0.431-0.142-0.843-0.353-1.279-0.441c-0.366-0.073-0.396-0.261-0.396-0.559C37.861,66.753,37.818,66.302,37.8,65.959z"/>
		<path fill="#FDEDD0" d="M30.256,26.111c0.367,0.43,0.66,0.771,0.952,1.114c0.021,0.025,0.054,0.052,0.058,0.082
			c0.127,1.124,0.733,2.182,0.344,3.379c-0.455,1.398-0.688,2.84-0.502,4.321c0.052,0.399,0.133,0.796,0.166,1.197
			c0.024,0.299,0.022,0.604-0.019,0.901c-0.021,0.143-0.159,0.269-0.245,0.401c-0.137-0.104-0.346-0.183-0.398-0.319
			c-0.168-0.438-0.326-0.889-0.4-1.348c-0.172-1.051-0.352-2.107-0.417-3.168c-0.071-1.173-0.047-2.354-0.011-3.531
			c0.023-0.77,0.13-1.538,0.225-2.304C30.034,26.615,30.15,26.405,30.256,26.111z"/>
		<path fill="#FDECCF" d="M9.989,57.85c0.202,1.529-0.035,2.967-0.492,4.396c-0.48,1.501-0.854,3.037-1.262,4.562
			c-0.051,0.189-0.039,0.399-0.035,0.6C8.204,67.609,8.327,67.891,8.235,68c-0.217,0.261-0.513,0.585-0.811,0.624
			c-0.566,0.074-1.159-0.017-1.734-0.088c-0.083-0.011-0.229-0.356-0.176-0.458c0.349-0.669,0.521-1.43,1.145-1.96
			c0.857-0.729,1.262-1.783,1.665-2.786c0.359-0.895,0.502-1.873,0.759-2.809c0.212-0.774,0.446-1.543,0.683-2.31
			C9.806,58.082,9.913,57.97,9.989,57.85z"/>
		<path fill="#FDEDD0" d="M35.922,69.4c-0.582,0.039-1.154,0.078-1.812,0.123c-1.09-2.271-1.584-4.76-1.649-7.328
			c0.328-0.115,0.646-0.229,1.011-0.356C34.002,64.402,34.332,67.086,35.922,69.4z"/>
		<path fill="#FDEDD0" d="M24.379,61.059c0.081,0.131,0.226,0.256,0.235,0.392c0.125,1.772,0.155,3.555,0.375,5.315
			c0.111,0.894,0.563,1.743,0.843,2.62c0.052,0.163,0.088,0.425,0,0.517c-0.124,0.13-0.402,0.244-0.557,0.191
			c-0.474-0.162-0.938-0.374-1.367-0.631c-0.458-0.275-0.319-0.771-0.289-1.189c0.041-0.564,0.163-1.123,0.215-1.688
			c0.135-1.469,0.255-2.939,0.369-4.41c0.027-0.348,0.004-0.699,0.004-1.049C24.265,61.104,24.321,61.082,24.379,61.059z"/>
		<path fill="#E6A5C0" d="M24.978,26.533c-0.184,0.624-0.322,1.28-0.571,1.891c-0.344,0.839-0.766,1.071-1.491,0.968
			c-0.466-0.066-1.006-0.72-1.08-1.377c-0.064-0.578-0.072-1.163-0.101-1.67c0.365-0.267,0.689-0.513,1.023-0.744
			c0.087-0.059,0.236-0.132,0.305-0.097C23.68,25.819,24.286,26.157,24.978,26.533z"/>
		<path fill="#FDEDD0" d="M17.22,64.677c0.363,0.923,1.04,1.107,1.887,1.156c-0.339,0.692-0.611,1.358-0.979,1.966
			c-0.339,0.561-2.559,1.469-3.245,1.393c-0.065-0.387,0-0.629,0.372-0.932c0.457-0.371,0.779-0.943,1.065-1.48
			C16.654,66.152,16.887,65.471,17.22,64.677z"/>
		<path fill="#FDEBCB" d="M18.211,56.826c-0.18-0.854-0.021-4.84,0.267-5.967c0.068,1.88,0.144,3.625,0.183,5.371
			c0.005,0.219-0.183,0.44-0.281,0.662C18.323,56.87,18.267,56.848,18.211,56.826z"/>
		<path fill="#F2D8AC" d="M36.695,48.955c-0.045,0.529-0.119,1.059-0.129,1.588c-0.02,1.025,0.002,2.055-0.002,3.08
			c-0.002,0.218,0.074,0.544-0.291,0.508c-0.109-0.011-0.232-0.289-0.279-0.463c-0.303-1.13,0.125-2.213,0.24-3.316
			c0.041-0.381,0.101-0.76,0.162-1.138c0.017-0.106,0.07-0.206,0.107-0.308C36.568,48.922,36.632,48.938,36.695,48.955z
			 M36.354,51.375c-0.166,0.794-0.424,1.595,0,2.367C36.354,52.969,36.354,52.172,36.354,51.375z"/>
		<path fill="#E7BB52" d="M8.681,11.098c0.173-0.154,0.347-0.308,0.521-0.462c0.014,0.016,0.028,0.031,0.042,0.046
			c-0.172,0.155-0.345,0.311-0.517,0.465C8.712,11.131,8.696,11.114,8.681,11.098z"/>
		<path fill="#E7BB52" d="M9.862,10.08c0.011,0.033,0.021,0.066,0.032,0.1c-0.103,0.074-0.206,0.147-0.309,0.221l-0.012-0.014
			C9.669,10.285,9.766,10.182,9.862,10.08z"/>
		<path fill="#E7BB52" d="M9.585,10.4c-0.029,0.038-0.054,0.081-0.089,0.112c-0.015,0.013-0.051,0.002-0.171,0.002
			c0.131-0.067,0.189-0.097,0.248-0.127L9.585,10.4z"/>
		<path fill="#FEEED3" d="M29.717,25.043c0.014,0.039,0.027,0.077,0.042,0.115c-0.03-0.025-0.06-0.05-0.089-0.076
			C29.686,25.07,29.701,25.057,29.717,25.043z"/>
		<path fill="#FDEED3" d="M9.145,57.684c0.034-0.012,0.067-0.022,0.101-0.033c-0.006,0.035-0.013,0.072-0.019,0.108
			C9.2,57.732,9.172,57.708,9.145,57.684z"/>
		<path fill="none" d="M6.099,22.056c0.033,0.038,0.066,0.076,0.1,0.114C6.165,22.132,6.132,22.094,6.099,22.056z"/>
		<path fill="#CA9136" d="M18.088,18.691c-0.024-1.229,0.573-2.018,1.675-2.505c1.552-0.687,3.147-0.916,4.82-0.624
			c2.2,0.384,3.576,2.521,2.771,4.732c-0.465,1.282-1.174,2.35-2.544,2.796c-0.345,0.112-0.725,0.164-1.088,0.162
			c-0.65-0.002-1.304-0.046-1.951-0.116c-0.239-0.026-0.506-0.125-0.69-0.275c-0.844-0.688-1.765-1.322-2.454-2.146
			c-0.42-0.503-0.472-1.316-0.688-1.989C17.987,18.715,18.038,18.703,18.088,18.691z"/>
		<path fill="#F9D35B" d="M36.354,51.375c0,0.797,0,1.594,0,2.367C35.932,52.97,36.188,52.169,36.354,51.375z"/>
	</g>
</g>
</svg>
