<?xml version="1.0" encoding="utf-8"?>
<!-- Generator: Adobe Illustrator 16.0.0, SVG Export Plug-In . SVG Version: 6.00 Build 0)  -->
<!DOCTYPE svg PUBLIC "-//W3C//DTD SVG 1.1//EN" "http://www.w3.org/Graphics/SVG/1.1/DTD/svg11.dtd">
<svg version="1.1" id="Layer_1" xmlns="http://www.w3.org/2000/svg" xmlns:xlink="http://www.w3.org/1999/xlink" x="0px" y="0px"
	 width="27px" height="25.039px" viewBox="6.5 7.833 27 25.039" enable-background="new 6.5 7.833 27 25.039" xml:space="preserve">
<path fill="#CECECE" d="M20.163,8.597c-6.872,0-12.444,5.572-12.444,12.446c0,5.497,3.565,10.161,8.512,11.807
	c0.622,0.113,0.849-0.27,0.849-0.6c0-0.296-0.01-1.077-0.017-2.116c-3.461,0.751-4.192-1.669-4.192-1.669
	c-0.566-1.438-1.382-1.821-1.382-1.821c-1.13-0.772,0.085-0.756,0.085-0.756c1.25,0.088,1.906,1.284,1.906,1.284
	c1.11,1.899,2.913,1.353,3.622,1.034c0.113-0.804,0.436-1.354,0.79-1.663c-2.763-0.315-5.669-1.384-5.669-6.151
	c0-1.359,0.485-2.469,1.281-3.34c-0.127-0.314-0.555-1.58,0.122-3.293c0,0,1.046-0.335,3.422,1.276
	c0.993-0.276,2.058-0.415,3.115-0.419c1.058,0.004,2.121,0.143,3.116,0.419c2.376-1.611,3.419-1.276,3.419-1.276
	c0.679,1.713,0.252,2.978,0.123,3.293c0.798,0.87,1.279,1.981,1.279,3.34c0,4.781-2.91,5.833-5.682,6.141
	c0.447,0.385,0.845,1.143,0.845,2.306c0,1.663-0.016,3.005-0.016,3.414c0,0.332,0.224,0.719,0.855,0.598
	c4.94-1.648,8.503-6.31,8.503-11.807C32.609,14.169,27.036,8.597,20.163,8.597z"/>
</svg>
