<?xml version="1.0" encoding="utf-8"?>
<!-- Generator: Adobe Illustrator 16.0.0, SVG Export Plug-In . SVG Version: 6.00 Build 0)  -->
<!DOCTYPE svg PUBLIC "-//W3C//DTD SVG 1.1//EN" "http://www.w3.org/Graphics/SVG/1.1/DTD/svg11.dtd">
<svg version="1.1" id="Layer_1" xmlns="http://www.w3.org/2000/svg" xmlns:xlink="http://www.w3.org/1999/xlink" x="0px" y="0px"
	 width="35.141px" height="36.264px" viewBox="0 0 35.141 36.264" enable-background="new 0 0 35.141 36.264" xml:space="preserve">
<path fill="#FFFFFF" d="M30.441,18.821c0.07-0.555,0.123-1.116,0.123-1.688s-0.053-1.135-0.123-1.689l3.666-2.867
	c0.331-0.262,0.426-0.729,0.209-1.11L30.849,5.46c-0.218-0.373-0.667-0.529-1.059-0.373l-4.313,1.741
	c-0.894-0.686-1.872-1.267-2.931-1.706l-0.647-4.595C21.82,0.121,21.465-0.2,21.033-0.2h-6.935c-0.434,0-0.789,0.32-0.856,0.728
	l-0.651,4.595c-1.057,0.439-2.034,1.014-2.929,1.706L5.347,5.087c-0.39-0.148-0.84,0-1.057,0.373l-3.467,6.004
	c-0.217,0.373-0.122,0.842,0.206,1.11l3.658,2.867c-0.068,0.557-0.121,1.117-0.121,1.689s0.053,1.134,0.121,1.688L1.03,21.687
	c-0.328,0.263-0.423,0.73-0.206,1.109l3.466,6.006c0.216,0.375,0.667,0.529,1.057,0.375l4.314-1.744
	c0.896,0.687,1.873,1.267,2.929,1.705l0.651,4.594c0.068,0.408,0.425,0.729,0.856,0.729h6.934c0.434,0,0.788-0.32,0.856-0.729
	l0.649-4.594c1.058-0.438,2.037-1.012,2.929-1.705l4.315,1.744c0.391,0.146,0.842,0,1.058-0.375l3.467-6.004
	c0.217-0.373,0.123-0.842-0.207-1.111L30.441,18.821z M17.565,23.198c-3.354,0-6.065-2.714-6.065-6.066
	c0-3.354,2.712-6.066,6.065-6.066c3.354,0,6.064,2.713,6.064,6.066C23.631,20.483,20.919,23.198,17.565,23.198z"/>
</svg>
