<?xml version="1.0" encoding="utf-8"?>
<!-- Generator: Adobe Illustrator 16.0.0, SVG Export Plug-In . SVG Version: 6.00 Build 0)  -->
<!DOCTYPE svg PUBLIC "-//W3C//DTD SVG 1.1//EN" "http://www.w3.org/Graphics/SVG/1.1/DTD/svg11.dtd">
<svg version="1.1" id="Layer_1" xmlns="http://www.w3.org/2000/svg" xmlns:xlink="http://www.w3.org/1999/xlink" x="0px" y="0px"
	 width="48px" height="48px" viewBox="0 0 48 48" enable-background="new 0 0 48 48" xml:space="preserve">
<path fill="#FFFFFF" d="M38.859,25.95C38.939,25.311,39,24.66,39,24s-0.061-1.31-0.141-1.95l4.23-3.31
	c0.381-0.3,0.49-0.84,0.24-1.28l-4-6.93c-0.25-0.43-0.77-0.61-1.221-0.43l-4.979,2.01c-1.03-0.79-2.159-1.46-3.38-1.97L29,4.84
	C28.91,4.37,28.5,4,28,4h-8c-0.5,0-0.91,0.37-0.99,0.84l-0.75,5.3c-1.22,0.51-2.35,1.17-3.38,1.97L9.9,10.1
	c-0.45-0.17-0.97,0-1.22,0.43l-4,6.93c-0.25,0.43-0.14,0.97,0.24,1.28l4.22,3.31C9.06,22.69,9,23.34,9,24s0.06,1.311,0.14,1.95
	l-4.22,3.31c-0.38,0.301-0.49,0.84-0.24,1.28l4,6.93C8.93,37.9,9.45,38.08,9.9,37.9l4.98-2.01c1.03,0.789,2.16,1.459,3.38,1.969
	l0.75,5.301C19.09,43.63,19.5,44,20,44h8c0.5,0,0.91-0.37,0.99-0.84l0.75-5.301c1.22-0.51,2.35-1.17,3.38-1.969L38.1,37.9
	c0.45,0.17,0.971,0,1.221-0.431l4-6.93c0.25-0.431,0.14-0.97-0.24-1.28L38.859,25.95z M24,31c-3.87,0-7-3.13-7-7s3.13-7,7-7
	s7,3.13,7,7S27.87,31,24,31z"/>
</svg>
