<?xml version="1.0" encoding="utf-8"?>
<!-- Generator: Adobe Illustrator 16.0.0, SVG Export Plug-In . SVG Version: 6.00 Build 0)  -->
<!DOCTYPE svg PUBLIC "-//W3C//DTD SVG 1.1//EN" "http://www.w3.org/Graphics/SVG/1.1/DTD/svg11.dtd">
<svg version="1.1" id="Layer_1" xmlns="http://www.w3.org/2000/svg" xmlns:xlink="http://www.w3.org/1999/xlink" x="0px" y="0px"
	 width="29.272px" height="23.9px" viewBox="11.06 9.1 29.272 23.9" enable-background="new 11.06 9.1 29.272 23.9"
	 xml:space="preserve">
<g>
	<path fill="#CECECE" d="M39.143,11.801c-1.033,0.458-2.144,0.767-3.31,0.908c1.189-0.714,2.103-1.843,2.533-3.188
		c-1.113,0.661-2.347,1.14-3.659,1.399C33.657,9.799,32.161,9.1,30.502,9.1c-3.183,0-5.762,2.578-5.762,5.761
		c0,0.451,0.051,0.891,0.149,1.313c-4.789-0.241-9.034-2.536-11.875-6.02c-0.497,0.851-0.78,1.841-0.78,2.896
		c0,1.999,1.016,3.762,2.562,4.795c-0.944-0.029-1.833-0.289-2.609-0.721c0,0.024,0,0.048,0,0.073c0,2.791,1.986,5.119,4.621,5.648
		c-0.483,0.133-0.993,0.203-1.518,0.203c-0.372,0-0.732-0.037-1.084-0.104c0.733,2.289,2.86,3.954,5.381,4
		c-1.972,1.545-4.457,2.467-7.155,2.467c-0.465,0-0.924-0.027-1.374-0.08c2.548,1.636,5.578,2.588,8.832,2.588
		c10.597,0,16.393-8.779,16.393-16.392c0-0.25-0.006-0.5-0.018-0.746C37.393,13.972,38.372,12.956,39.143,11.801"/>
</g>
</svg>
